<svg class="animated" id="freepik_stories-bear-market" xmlns="http://www.w3.org/2000/svg" viewBox="0 0 500 500" version="1.1" xmlns:xlink="http://www.w3.org/1999/xlink" xmlns:svgjs="http://svgjs.com/svgjs"><style>svg#freepik_stories-bear-market:not(.animated) .animable {opacity: 0;}svg#freepik_stories-bear-market.animated #freepik--Map--inject-530 {animation: 1s 1 forwards cubic-bezier(.36,-0.01,.5,1.38) slideRight;animation-delay: 0s;}svg#freepik_stories-bear-market.animated #freepik--Chart--inject-530 {animation: 1s 1 forwards cubic-bezier(.36,-0.01,.5,1.38) slideDown;animation-delay: 0s;}svg#freepik_stories-bear-market.animated #freepik--Arrow--inject-530 {animation: 1s 1 forwards cubic-bezier(.36,-0.01,.5,1.38) slideDown,1.5s Infinite  linear heartbeat;animation-delay: 0s,1s;}svg#freepik_stories-bear-market.animated #freepik--Bear--inject-530 {animation: 1s 1 forwards cubic-bezier(.36,-0.01,.5,1.38) slideLeft;animation-delay: 0s;}            @keyframes slideRight {                0% {                    opacity: 0;                    transform: translateX(30px);                }                100% {                    opacity: 1;                    transform: translateX(0);                }            }                    @keyframes slideDown {                0% {                    opacity: 0;                    transform: translateY(-30px);                }                100% {                    opacity: 1;                    transform: translateY(0);                }            }                    @keyframes heartbeat {                0% {                    transform: scale(1);                }                10% {                    transform: scale(1.1);                }                30% {                    transform: scale(1);                }                40% {                    transform: scale(1);                }                50% {                    transform: scale(1.1);                }                60% {                    transform: scale(1);                }                100% {                    transform: scale(1);                }            }                    @keyframes slideLeft {                0% {                    opacity: 0;                    transform: translateX(-30px);                }                100% {                    opacity: 1;                    transform: translateX(0);                }            }        </style><g id="freepik--background-complete--inject-530" class="animable" style="transform-origin: 249.995px 238.43px;"><polygon points="79.92 41.98 80.16 91.03 80.25 140.08 80.42 238.18 80.25 336.28 80.16 385.33 79.92 434.39 79.67 385.33 79.59 336.28 79.42 238.18 79.59 140.08 79.67 91.03 79.92 41.98" style="fill: rgb(235, 235, 235); transform-origin: 79.92px 238.185px;" id="eloptx4x2h9n" class="animable"></polygon><polygon points="459.39 67.59 407.05 67.83 354.7 67.92 250 68.08 145.3 67.92 92.95 67.83 40.6 67.59 92.95 67.34 145.3 67.25 250 67.09 354.7 67.25 407.05 67.34 459.39 67.59" style="fill: rgb(235, 235, 235); transform-origin: 249.995px 67.585px;" id="elnkxc7cpaxop" class="animable"></polygon><polygon points="459.39 104.27 407.05 104.51 354.7 104.6 250 104.77 145.3 104.6 92.95 104.51 40.6 104.27 92.95 104.02 145.3 103.93 250 103.77 354.7 103.93 407.05 104.02 459.39 104.27" style="fill: rgb(235, 235, 235); transform-origin: 249.995px 104.27px;" id="elao93xck00db" class="animable"></polygon><polygon points="459.39 140.95 407.05 141.19 354.7 141.28 250 141.44 145.3 141.28 92.95 141.19 40.6 140.95 92.95 140.7 145.3 140.61 250 140.45 354.7 140.61 407.05 140.7 459.39 140.95" style="fill: rgb(235, 235, 235); transform-origin: 249.995px 140.945px;" id="ellbmnrgc954" class="animable"></polygon><polygon points="459.39 177.63 407.05 177.87 354.7 177.96 250 178.13 145.3 177.96 92.95 177.87 40.6 177.63 92.95 177.38 145.3 177.29 250 177.13 354.7 177.29 407.05 177.38 459.39 177.63" style="fill: rgb(235, 235, 235); transform-origin: 249.995px 177.63px;" id="elwfixngrrmz" class="animable"></polygon><polygon points="459.39 214.31 407.05 214.55 354.7 214.64 250 214.81 145.3 214.64 92.95 214.55 40.6 214.31 92.95 214.06 145.3 213.97 250 213.81 354.7 213.97 407.05 214.06 459.39 214.31" style="fill: rgb(235, 235, 235); transform-origin: 249.995px 214.31px;" id="el7w4lz3uuaya" class="animable"></polygon><polygon points="459.39 250.99 407.05 251.23 354.7 251.32 250 251.49 145.3 251.32 92.95 251.23 40.6 250.99 92.95 250.74 145.3 250.65 250 250.49 354.7 250.65 407.05 250.74 459.39 250.99" style="fill: rgb(235, 235, 235); transform-origin: 249.995px 250.99px;" id="ela7gcmvl2ybi" class="animable"></polygon><polygon points="459.39 287.67 407.05 287.91 354.7 288 250 288.17 145.3 288 92.95 287.91 40.6 287.67 92.95 287.42 145.3 287.33 250 287.17 354.7 287.33 407.05 287.42 459.39 287.67" style="fill: rgb(235, 235, 235); transform-origin: 249.995px 287.67px;" id="elk5zb6q22vmm" class="animable"></polygon><polygon points="459.39 324.35 407.05 324.59 354.7 324.68 250 324.85 145.3 324.68 92.95 324.59 40.6 324.35 92.95 324.1 145.3 324.01 250 323.85 354.7 324.01 407.05 324.1 459.39 324.35" style="fill: rgb(235, 235, 235); transform-origin: 249.995px 324.35px;" id="el2z7ra8y666b" class="animable"></polygon><polygon points="459.39 361.03 407.05 361.27 354.7 361.36 250 361.52 145.3 361.36 92.95 361.27 40.6 361.03 92.95 360.78 145.3 360.69 250 360.53 354.7 360.69 407.05 360.78 459.39 361.03" style="fill: rgb(235, 235, 235); transform-origin: 249.995px 361.025px;" id="elojpfdo9nn97" class="animable"></polygon><polygon points="459.39 397.71 407.05 397.95 354.7 398.04 250 398.2 145.3 398.04 92.95 397.95 40.6 397.71 92.95 397.46 145.3 397.37 250 397.21 354.7 397.37 407.05 397.46 459.39 397.71" style="fill: rgb(235, 235, 235); transform-origin: 249.995px 397.705px;" id="elef0rn2pxs8" class="animable"></polygon><polygon points="459.39 434.39 407.05 434.63 354.7 434.72 250 434.88 145.3 434.72 92.95 434.63 40.6 434.39 92.95 434.14 145.3 434.05 250 433.89 354.7 434.05 407.05 434.14 459.39 434.39" style="fill: rgb(235, 235, 235); transform-origin: 249.995px 434.385px;" id="elmale8qa1ez" class="animable"></polygon><polygon points="128.51 41.98 128.76 91.03 128.84 140.08 129.01 238.18 128.85 336.28 128.76 385.33 128.51 434.39 128.27 385.33 128.18 336.28 128.01 238.18 128.18 140.08 128.27 91.03 128.51 41.98" style="fill: rgb(235, 235, 235); transform-origin: 128.51px 238.185px;" id="elvoqenuh1mll" class="animable"></polygon><polygon points="177.11 41.98 177.35 91.03 177.44 140.08 177.61 238.18 177.44 336.28 177.35 385.33 177.11 434.39 176.86 385.33 176.78 336.28 176.61 238.18 176.78 140.08 176.87 91.03 177.11 41.98" style="fill: rgb(235, 235, 235); transform-origin: 177.11px 238.185px;" id="elrorvrcsh72r" class="animable"></polygon><polygon points="225.7 41.98 225.95 91.03 226.03 140.08 226.2 238.18 226.03 336.28 225.95 385.33 225.7 434.39 225.46 385.33 225.37 336.28 225.2 238.18 225.37 140.08 225.46 91.03 225.7 41.98" style="fill: rgb(235, 235, 235); transform-origin: 225.7px 238.185px;" id="eldzk54esorw" class="animable"></polygon><polygon points="274.3 41.98 274.54 91.03 274.63 140.08 274.8 238.18 274.63 336.28 274.54 385.33 274.3 434.39 274.05 385.33 273.96 336.28 273.8 238.18 273.97 140.08 274.05 91.03 274.3 41.98" style="fill: rgb(235, 235, 235); transform-origin: 274.3px 238.185px;" id="ela02pwp0uuch" class="animable"></polygon><polygon points="322.89 41.98 323.13 91.03 323.22 140.08 323.39 238.18 323.23 336.28 323.14 385.33 322.89 434.39 322.65 385.33 322.56 336.28 322.39 238.18 322.56 140.08 322.65 91.03 322.89 41.98" style="fill: rgb(235, 235, 235); transform-origin: 322.89px 238.185px;" id="el3ifl9anck1k" class="animable"></polygon><polygon points="371.49 41.98 371.73 91.03 371.82 140.08 371.99 238.18 371.82 336.28 371.73 385.33 371.49 434.39 371.24 385.33 371.15 336.28 370.99 238.18 371.15 140.08 371.24 91.03 371.49 41.98" style="fill: rgb(235, 235, 235); transform-origin: 371.49px 238.185px;" id="el2jkliiobzsu" class="animable"></polygon><polygon points="420.08 41.98 420.32 91.03 420.41 140.08 420.58 238.18 420.41 336.28 420.33 385.33 420.08 434.39 419.84 385.33 419.75 336.28 419.58 238.18 419.75 140.08 419.84 91.03 420.08 41.98" style="fill: rgb(235, 235, 235); transform-origin: 420.08px 238.185px;" id="elvci44pies0h" class="animable"></polygon></g><g id="freepik--Map--inject-530" class="animable" style="transform-origin: 250.015px 153.57px;"><path d="M196.75,194.56c.35,1.51.37,1.49-.46,2.69-1,1.49-2,3-3.07,4.43-.46.7-1.05,1.23-1.11,2.1-.16,2.19-.31,4.36-.47,6.53-.1,1.43-1.6,2.92-2.34,4.06-.33.5-.59,1.33-1.18,1.36s-1.87-.16-2.33.17c-1.44,1-2.87,2-4.31,2.94-.29.2-.27,2.36-.33,2.72s0,1.25-.26,1.6c-1.17,1.55-2.37,3.08-3.56,4.6s-2.17,2.82-3.28,4.2c-.24.33-3.68-1.16-4.19-1.33-.31,1.18,1.64,1.31,1.84,2.32a6.85,6.85,0,0,1,.4,2,5.11,5.11,0,0,1-1,1.45c-.72,1.07-1.67,1.05-2.83,1.36a4.94,4.94,0,0,1-2.8,0c.22.72.41,1,.13,1.71-.15.42,0,1.12-.2,1.29-1.14.81-1.81.46-3-.13a8.51,8.51,0,0,0,0,1.95c.09.42.77,1.14.61,1.54-.37.78-.74,1.55-1.09,2.34s-.48.68-1.29.88-.8.76-1.15,1.42c-.22.4.62,1.2.86,1.54s1.36.06,1.16.8a3.5,3.5,0,0,1-.81,1.52,5.63,5.63,0,0,0-1.18,1.6c-.29.94-.53,1-1.34,1.46s.09,2.92.24,3.82c.07.33,0,1.11.31,1.33l1.82,1.54c1.05.9,1.77.76,3.13.77-1.23.56-2.46,1.13-3.7,1.68-1,.46-1.16.2-2.17-.3l-4.36-2.09c-.75-.35-.86-1.2-1.21-2-.81-1.91-2.13-3.81-1.9-5.94.35-3.2.72-6.38,1.09-9.56s.48-6.28,1.05-9.29c.73-3.83,1.45-7.66,2.17-11.46q.66-3.51,1.32-7a22.41,22.41,0,0,0,.59-3.11,16.23,16.23,0,0,0-.33-2.67,8.19,8.19,0,0,0-.29-2.35c-.32-.5-1.35-.94-1.81-1.27-.9-.61-1.78-1.24-2.68-1.86a5.42,5.42,0,0,1-1.71-2.3c-1.11-2.06-2.21-4.12-3.31-6.2-.9-1.69-1.81-3.38-2.73-5.09-.55-1.05.39-3,.65-4.07a7.43,7.43,0,0,1,.53-2.17c.54-.68,1-1.34,1.56-2,1.16-1.49,2.16-2.34,1.84-4.44,0-.48-.35-.73,0-1.08.06,0-.12-.72,0-1,.13-.64-1.27-1.21-1.12-1.84s.14-.66-.48-1c-.44-.28-.44-.24-.9,0a3.85,3.85,0,0,0-.92.73c-.17.15.29.7.4.87-.9.39-.86.5-1.27-.48-.18.53-1.08-.37-1.58-.46-.26,0-.42.24-.59.13l-.81-.63c-.57-.42-1.67-.93-2-1.56s-.16-1.31-.59-1.78c-1.06-1.22-1.71-2.3-3.18-2.73-1.14-.31-3-.38-3.95-1.28l-2.38-2.34c-.51-.51-1.25,0-1.87.22-1.4.42-2.85-.59-4.2-1.14-1.08-.44-2.17-.86-3.25-1.31-.33-.14-1-.23-1.25-.51-.7-.72-1.4-1.43-2.12-2.15s-.26-1.07,0-2c.17-.61-1-1.78-1.27-2.26a6.09,6.09,0,0,0-1.12-1.34c-.75-.72-1.51-1.42-2.28-2.14-.17-.14.05-.64.09-.86s-.37-.61-.5-.76a10.2,10.2,0,0,0-1.67-1.85c-.57-.45-1.18-.7-1.4-1.46-.11-.4-.44-2.39-.77-2.55l-2.12-1c.22.79.39,2.35.91,3a10,10,0,0,1,1.87,2.76,2.6,2.6,0,0,0,.94,1.27,3.1,3.1,0,0,1,.66,1.36,5,5,0,0,1,.46,1.55c0,.86.41.23.66.44s.87.73.81,1.17c-.09.59-.6.72-.84.28a6.92,6.92,0,0,0-2.23-2.08c-.24-.16-.15-1.25-.16-1.54,0-.46-.72-.78-1-1.05s-.63-.13-1-.44-.79-.68-1.18-1c.48-.06,1.57-.15,1-1a3.5,3.5,0,0,0-1.58-1.58c-.54-.28-.68-1.16-.9-1.73l-1.11-2.89a4.56,4.56,0,0,0-2.78-2.24c-.79-.21-1.06-.15-1.41-.85a1.09,1.09,0,0,1-.06-.11l-1.21-2.61c-.59-1.29-1.75-2.08-2.17-3.5a13.22,13.22,0,0,1-.41-4.95c.08-1.61.17-3.21.26-4.83a10,10,0,0,0-.79-4,21.62,21.62,0,0,1,2.63.81c0-1.31.09-1.47-.75-2.39a11.5,11.5,0,0,0-2-1.68,8.84,8.84,0,0,0-2.08-.79c-1.16-.51-1.34-.55-1.87-1.78-.59-1.44-2.73-2.19-2.58-3.77s0-1.35-1.16-2.1c-.16-.09-.86,1.45-1.36.7-.37-.57-1-2-1.53-2.3a2.84,2.84,0,0,1-1.5-1.38A17.11,17.11,0,0,0,80,102.37a13.72,13.72,0,0,0-1.9-1.32,18.22,18.22,0,0,0-4.39-2.14c-.65-.23-1.44.32-2.08.17a9.82,9.82,0,0,1-2.1-1.29,2.6,2.6,0,0,0-2-.62c-.85.09-1.27.31-.94,1.38.26.88-3.17,1.8-3.9,2.06a.52.52,0,0,1,.38-.78c-.58-.16-.14-1.84.23-2a3.56,3.56,0,0,1,2.22-.46c-.22-.2-.44-.4-.64-.6.24-.19.49-.37.75-.56a6.66,6.66,0,0,0-3.42,1.59,8.39,8.39,0,0,0-2.26,3c.35.09.7.19,1.05.26a15.21,15.21,0,0,1-3.48,3.22c-.68.5-2.85,1-2.94,2.06s-2.89,1.45-3.7,1.69a6.64,6.64,0,0,1-1,.15c-.41,0-.2.27-.52.48a2.07,2.07,0,0,1-1.89.4,10,10,0,0,1,2.13-1.3c.59-.35,2.28-2,2.8-1.09.37-.64,1.73-2.15,2.46-1.64-.25-.7,1-1.14,1.16-1.91a1.74,1.74,0,0,1,.55-1.25c.28-.28.55-.42.28-.85-.92.52-1.91,1.33-2.85.63-.33-.22-1-.94-1.34-.77l-1.44.64c-.16-1-.33-1.95-.5-2.93-.24.13-1.49,1-1.67.91-.46-.39-1.36-.85-1.67-1.38a9.16,9.16,0,0,1-.54-2.39c-.13-.56.33-1,.61-1.46.53-.94.48-1.17,1.47-1.08.83.07,1-.59,1.68-.89s1.32.28,1.67-.62c.27-.72-.15-.85-.63-1.38l.67-.39c-.32-.93-1.07-.11-1.6.21s-.8-.08-1.48,0c-1.36.17-2.88.45-3.62-1,.17,0,.33-.22.5-.25-.67-.24-1.55-.33-2-1a5.57,5.57,0,0,1,2.74-1,2.86,2.86,0,0,0-.24-.3,4.53,4.53,0,0,1,2.25-.64c0,1.09.79.92,1.62,1.14s.95-.15,1.6-.59c-.3-.13-.59-.26-.89-.37l.35-.14c-.33-.26-.44-.55-.09-.81a9.17,9.17,0,0,1-2.17-.43c-.59-.2-.59-1.15-1.18-1.43-.4-.2-2.11-.66-2.3-1.09-.07-.16.32-1,.37-1.19s.44-.11.55-.11c.65-.06,1.64.16,2.05-.44a10.6,10.6,0,0,1,1.5-1.93A7.37,7.37,0,0,1,54,76.79a4.42,4.42,0,0,0,2.26-.7c1-.77.9-.79,2-.24s3.62-.19,4,1c.29.85,3.09.78,4,.89,1.39.18,2.77.35,4.17.59l6.13,1.08A18.72,18.72,0,0,1,80.43,81c.22.11,1.65-1.63,1.87-1.86.39-.38,1.13.76,1.57.56.72-.32,4-2.3,4.45-1.53L84.77,80c.92.64,3.94-2,4.19-.89.37-.4.72-.82,1.07-1.23s-.42-.44.09-.86a39.94,39.94,0,0,0,2.82,3,3.44,3.44,0,0,1,1.19-2c.44.46-.35.68.28,1,.22.13-.15.63-.26.85.39-.11,1.14-.11,1.45-.37.11-.11-.14-.59.08-.61l.66-.11c.79-.11,1.84.65,2.57,1a36.06,36.06,0,0,0,4.82,1.3c0-.11-.07-.24-.11-.35A4.28,4.28,0,0,1,106,81.83c.65.44-1.34,1.14-1.49,1.19a5.79,5.79,0,0,0,2.08.52l3.44-.28c.53,0,1.47-.2,1.84.37L113.48,86c-.07-.33-.16-.68-.24-1s.17-.38.13-.59c-.13-.8-.48-.6,0-1.39.32-.54,2.65-.61,2.14-1.42a7.22,7.22,0,0,1-3.18.79c.27-1,.7-.92,1.63-1.23s1.11-.42,2,.09c.26.15.4.74.55,1s.44.32.81.39a16.22,16.22,0,0,1,2.12.66c.58.22,3.86.61,4,.15.27-.94.33-1.38,1.36-1.38a8.68,8.68,0,0,1,2,.52c-.09.31-.49,1.25-.38,1.52s1,.68,1.27.85c-.35-1.07-.74-2,.57-2.19.53-.09.84-.57,1.23-1s.09-.64,0-1c-.33.17-.66.33-1,.48-.12-1,.63-1.21,1.37-1.27,0-.83-.81-.24-1.31-.42s-1.77-.42-1.93-.85a5.11,5.11,0,0,1-.33-2.44c0-.94.44-1.07,1.16-.78.12-.46-.19-.62-.56-.57.7-.46.79-.4.78-1.28a3.31,3.31,0,0,0-.41-1.79,3.72,3.72,0,0,1,0-1.82c0-.46.77-.22,1.12-.2-1.27-1.42,1-1,1.85-1a10.2,10.2,0,0,1,3.24.46c-.49.71-1.16,2.26-1.86,2.68s-2.15.06-2.81.06c2.12.31-.31,1.67-.18,2.35,1.06-.18,1.67.76,1.87,1.77.13.66,1.18,1.45,1.6,2-.51.35-1.05.69-1.56,1,.51.21.94.56,1.42.23s.9.07,1.41.31c-.24.18-.49.35-.73.51.49.44.75.44.58,1.12s-.27.83.34,1.22a2.75,2.75,0,0,0,.62-1.42c0-.24.22-1.23.66-1,.28.18,1.24.55,1.31.88.13.59.5,1.25-.22,1.49,0-.15-.07-.29-.07-.44-1.46.81,1.8,3.73,1.94,2.15,0-.44,0-.72.3-1,.15-.15.64-.43.64-.68,0-1.18,0-1.11,1-1.55-.4-.62-.77-.94-.62-1.67s.55-.55,1.21-.44c.43.07,1.6,0,1.92.36a2.06,2.06,0,0,0,1.54.94c-.35.63.2,1-.16,1.46-.23.27-1,.16-1.35.2a5.54,5.54,0,0,0,1,1.67c.53.5.77.88.2,1.62a6.64,6.64,0,0,1-1.8,1.1c-.5.32-.85-.35-1.25-.71l.6,1.38-.94-.5c0,.13.08.26.11.39l-.95-.22c-.22-.06-.06-.61-.26-.61-.5,0-1.18-.19-1.42.38.3.19.59.35.91.52-.34.5-.59,1.09-1.09,1.36-.72.41-1,.07-1.71-.33a7.48,7.48,0,0,0-3.42-.59l2.63,1.33a8.1,8.1,0,0,0,2.43.31c-.3.48-.76,1.78-1.24,2a2.23,2.23,0,0,1-.93.39c-.37,0-.72-.17-1.05,0-1,.7-1.05.74-2.15.41-.7-.22-1.4-.39-2.1-.57l1.4.62c-.11.1-.17.23-.28.32a1.51,1.51,0,0,1,1.53.2c.35.2.9.72.31,1a2.65,2.65,0,0,1-1.62.26c-.22,0-.57.77-.7,1a9.84,9.84,0,0,0-1.65,2.88c-.26,1.22-.5,2.43-.78,3.63.5.13,1.55.13,1.92.46s.64,1.78.84,2.32c.35,1,.57.62,1.51.42a3,3,0,0,1,1.51.38,13.92,13.92,0,0,1,3.68,1.88c.39.28,1.16,1.1,1.62,1.14.71.08,1.41.17,2.11.22.24,0,1.58,0,1.58.32,0,1-.09,1.93-.12,2.9-.06,1.36,1.3,2.39,2.07,3.37s2.41-.81,2.29-1.64-.3-1.73-.45-2.61c-.07-.46-.68-1.07-.92-1.45.85-.56,2.51-1.18,3.09-2s.67-2.85,0-3.51a12.4,12.4,0,0,1-1.31-1.4c-.53-.77-.72-.7,0-1.32s.79-.57.52-1.57a3.31,3.31,0,0,1-.31-1.73,2.6,2.6,0,0,0,0-2.15c-.18-.62.2-.83.83-.92,1.16-.13,2.23.87,3.37.33.71-.33.9.06,1.56.54.31.22,1.23.6,1.32,1,.17.64.54,1.14,1.24,1a2.25,2.25,0,0,1,1.47.44c-.3.51-.48.66-.39,1.25a2.82,2.82,0,0,1,.06,1.6c.14,0,.31,0,.46,0-.28.35-1.07.92-.65,1.31.74-2.21,3.41,2.61,4-.37.11.13.33.14.46.27.29-.62.77-1.23.64-2-.09-.49.64-1.49,1.14-1.36-.07.26-.13.52-.18.79,1.16.06,1.93,2.41,2.46,3.35.31.53,1.23,1.6,1.27,2.19,0,.33-.55.79-.48,1.12,0,.15.61.48.7.57a4.12,4.12,0,0,1,1,.76c.2.35-.15.73.33.75a3.18,3.18,0,0,1,2,.57c.49.35,1.5.81.4,1a15.06,15.06,0,0,0-1.82.53c.37.15.86-.13,1.25-.24-.28.48-1.14.53-1.62.68s-.33,1.09-.07.75a1.26,1.26,0,0,1,.72-.46c.27-.09.16-.25.35-.35a3.32,3.32,0,0,1,1.41-.4.78.78,0,0,1-.53-.28c.35,0,1,0,1.18.45s-.41.49-.08.9c.41-.72.88-.33,1.51-.13s.11,1.1,0,1.4c-.2.55.44.73,0,1.36a3.87,3.87,0,0,1-1.36.84c-.48.13-1,0-1.51.21a2.44,2.44,0,0,0-1.16,1,2.78,2.78,0,0,1-2.76.92,21.6,21.6,0,0,0-3.6-.09c-1.11.07-2.23-.29-2.52,1.16-.08.39-1.14.5-1.42.7a8.9,8.9,0,0,0-1.29,1.38,16.09,16.09,0,0,1-2,2.35c1.47-.72,2.26-2.26,3.71-3,1-.48,3.75-2,4.47-.22-.13-.07-.26-.09-.39-.15.76.5-.25.89-.62,1.2s-.87-.31-1.42.07c.22.06.76.65.79.65a1.56,1.56,0,0,1,1-.06,1.64,1.64,0,0,1-.65,1,5,5,0,0,1,.55,0c-.27.77.54,1.39,1.13,1.54a1.37,1.37,0,0,0-.21.15c.85.4,1.7.75,2.43.22,0,.13.06.26.08.4a1.34,1.34,0,0,0,.51-.14c-.51-.67.5-1.6.85-2.14.68.24.29.83.14,1.34.48-.36,1.18.37.76.56a2.89,2.89,0,0,1-1.68.46c.13.11.21.31.34.44-.7.27-1.38.55-2.08.84a2.24,2.24,0,0,0-.78.37c-.29.26-.36-.35-.62-.15-.48.39-.9,1.13-1.42,1.6-.33.34-.66-.12-.88-.2-.74-1.05,1-2,1.64-2.39.42-.29.2.06.4.24.39.33.63-.13,1-.46-.46,0-1-.18-1.46.09,0-.24.22-.49.39-.73-.55-.15-1.23.57-1.69.86-.28.19-.28-.24-.63.15-.16.2-.55.09-.79.09.35,1.12-1.56.72-1.82,1.23-.07-.09-.15-.16-.22-.24-.3.61-.59.67-1.14.89-.39.14-.41.42-.55.82-.24.59-1.33,2.6.16,2.43l-.11-.27a1.58,1.58,0,0,1,.31.36c-.44.32-1,0-1.43-.07-.24,0-.17.63-.5.64a4.34,4.34,0,0,0-2.52.78c.66-.08,1.22-.41,1.88-.52a1.63,1.63,0,0,1-.22.17,5.07,5.07,0,0,0,.55,0,3.1,3.1,0,0,1-1.29.5c-.4,0-1.14-.13-1.38.31,1,.13-.46,2.06-.83,2.38.24-.43-.47-.7-.64-1.2,0,.61.77,1.4.52,2a11.1,11.1,0,0,0-.92,1.77l-.11,0a2.71,2.71,0,0,1,.35-1.14c-.28-.17-.15-.7-.67-.55a4.6,4.6,0,0,1,.26-1.18c0-.07.37-.85,0-.57-.86.62-.61,1-.37,2.1a2.21,2.21,0,0,0-.82-.45c.22.33.75.43.92.74s-.19,1-.12,1.2c.13.42.72.2.56.9s-.48.51-1,.68c.42,0,1.18-.15,1.07.49,0,.28-.94.3-1.18.33.13.08.24.21.37.28-.18.07-.3.2-.53.18.2.54.51.06.86.26-.24.15-.48.28-.72.41s-.46-.21-.6-.11c-.3.16-.59.84-.81,1.16s-.67.11-.94.46a3.59,3.59,0,0,1-.81.91,4.07,4.07,0,0,0-2,2.29,3.18,3.18,0,0,0,.19,2.28,21.33,21.33,0,0,1,1.16,3.14c.16.59.33,2.1-.09,2.52s-.61.74-1,.22c-.11-.16-.81-.79-.81-.84a11.1,11.1,0,0,0-.51-1.25c-.21-.46-.45-.72-.3-1.27l-.26.22c-.2-.7.45-1.7-.25-2.17s-.94-1.25-1.66-1c-.39.13-.79.41-1.16.17a5.35,5.35,0,0,0-1.1-.72c-.63-.16-1.69.67-1.88-.4-.13.94-2.19.26-2.81.75.44,0,2,.24.83.81.12.06.77.28.79.41.09.33-.21.46-.43.42.17-.44-.47-.61-.79-.79.08.31-.05.4-.07.64-.28-.6-.53,0-.94-.27s-.7-.72-1.27-.52a.49.49,0,0,1-.24,0,3.68,3.68,0,0,1-.86-.31c-.59-.22-1.51.44-2.08.68-.92.37-3.13,2-3.13,3.35,0,.4.54.81.55,1.21a3.87,3.87,0,0,1-.27,1,8.52,8.52,0,0,0-.52,2.23,8.09,8.09,0,0,0,1.31,4.87c.63.94.86,1.6,1.88,1.9.22.07.55.59.73.53.41-.16.83-.33,1.25-.48a4.44,4.44,0,0,1,1.12-.26c.32,0,.56.37.7.3a1.92,1.92,0,0,0,.54-.26c.09-.07-.15-.33,0-.46a1.76,1.76,0,0,0,.68-.94c.24-.81.16-1.74,1-2.09a6.73,6.73,0,0,1,1.89-.37c.5,0,1.88-.22,1.44.81-.19.42-.74,1.64-1,1.67.15.08.05.24.4.22a4,4,0,0,1-.36.35l.07.09.18-.12a8.28,8.28,0,0,0-.4,1.5,1,1,0,0,1-.24-.88,2.55,2.55,0,0,0-.33.57c.64,0-.09,1.29.11,1.75s-.5,1.18-.77,1.43a15,15,0,0,0,2.81.24c.39.06.66-.29,1.05-.24a6.09,6.09,0,0,1,1.43.21,1.76,1.76,0,0,1,1.25,2c-.11.65-.2,1.27-.31,1.92,0,.36-.35.7-.4,1-.22,1.73,1.87,4.55,3.44,3.9,1-.38,1.47-.79,2.5-.47a4.3,4.3,0,0,1,2.09,1.63c-.05-1.23,1.46-2.88,2-3.88.18-.31,1.3-.49,1.61-.6l2.47-.89c.75-.27,2.13.39,2.87.55l5.87,1.38c1.05.24,2.13.26,2.94,1,1.53,1.48,3.05,2.93,4.58,4.4,1,.92,3.05.94,4.29,1.25s2,2.19,2.77,3.13l2.19,2.89c.19.23.57,1,.85,1.08l4.71,1.71c1.58.57,3.14,1.12,4.71,1.71,1.3.46,2.64,1.9,3.8,2.72.22,0,1.68,0,1.71.21C196.42,193.16,196.58,193.86,196.75,194.56Z" style="fill: rgb(87, 144, 184); transform-origin: 120.544px 166.916px;" id="elunl3yk4nqqm" class="animable"></path><path d="M125.79,69.63c-.26.17-.52.31-.76.48.17.06.3.26.48.33l-1.53,1c1,0,1.24-.18,1.68.81.13-.13.37-.13.5-.28l.33.8a3,3,0,0,0-.63.22c1.36.47-.72,1.87-1.47,1.54.18.57-.55.94-1,.85s-.83-.72-1.2-1.18c-.79-1-1.91-1.27-2.89-2-.51-.42.09-.79.52-.92s.84.75,1.23.83c.83.14.81-.61.81-1.2,0-.29-1.18-.61-1.44-.72.23-.2.59-.84.87-.86.64,0,1-.24,1.54.05s.85.13,1.51-.09S125.22,69.34,125.79,69.63Z" style="fill: rgb(87, 144, 184); transform-origin: 122.797px 72.3015px;" id="elmivk0fg8qn" class="animable"></path><path d="M405,65.92c-.16-.74,1.25-1.51,1.29-.3.52-.46,1.12-.27,1.73-.26,0,.15,0,.34,0,.5a2.23,2.23,0,0,1,1.68-.11c.13,0,.84.13.9.28a1.78,1.78,0,0,1-.11.82,9.4,9.4,0,0,1-3.57.43C406.55,67,405.08,66.3,405,65.92Z" style="fill: rgb(87, 144, 184); transform-origin: 407.798px 66.1464px;" id="el5dtes61u6kk" class="animable"></path><path d="M455.92,87c-.39.33-1,1.07-1.47,1.2a4.46,4.46,0,0,1-1.62-.26c0,.76.13,1-.52,1.29-.46.22-.05.94.06,1.42a3,3,0,0,1-1.86-.76c-.42-.31-1.36.24-1.49-.27-.18-.76-.07-1.48-.83-1.53s-1.63-.11-2.44-.18c-.5,0,.33-1.49-.74-1.33-.55.09-.33,1.49-.37,2,0,.87-2.76,1.11-3.49,1.31.62.46,1.38.66,1.41,1.53a3.75,3.75,0,0,0,1,2.22c.06.08-.4.68-.51.74s-.81-.17-1-.2c-.39-.1-1.29-.48-1.66-.26-1.5.9-3,1.82-4.5,2.74-1.16.7-2.43,1.08-3,2.45-1.05-1-1.11-1.16-2.49-1s-1.38.24-2.17,1.4c0-.41,0-.83,0-1.23-.41.2-1.14.77-1.59.71s-1.06-.38-1.39.15c-.76,1.21-1.49,2.41-2.25,3.61.41.14,1.81.31,1.68.79-.3,1.17-.35,1.21.35,2.15-1.18.51-2.23,1-1.6,2.56.11.25-.91.64-1.16.73-.55.2-1.07.13-1.12.81s.16,1.47-.59,1.66c-.94.25-1,.12-1.14,1.17s-1.46,2.08-2.06,2.84c-.78-3.59-3.37-10.43.93-12.55,1.24-.59,2-.77,2.67-2a7.51,7.51,0,0,1,2.5-2.45c.72-.53,1.7-.83,1.92-1.78.16-.72.35-1.44.51-2.16.06-.16,1-.25,1.21-.29a4.71,4.71,0,0,0-1.82-.17c-.53.08-.82.91-1.12,1.38a11.86,11.86,0,0,1-2.67,2.32,3.88,3.88,0,0,1-.07-2.65,3,3,0,0,1-2,.63c-.92,0-1.14-.08-1.84.51a24.6,24.6,0,0,0-3,3.09c.29.26,1.05.63.83,1-.09.17-1.11.22-1.33.26-1,.13-2.09.26-3.12.37.36-.26.73-.54,1.1-.79-1-.22-2-.41-3-.61-.28-.06-1,.55-1.21.7s-.7,0-1,0a14.06,14.06,0,0,0-2.67-.13c-.57,0-2.24-.24-2.68.19-1.55,1.43-3.06,2.87-4.55,4.39a30.84,30.84,0,0,1-4.47,3.59c.2.53.57.5,1,.53s.63,0,.87.56c.05.18.25,1,.44,1,1.19.11,1.29.3,1.87-.86.5-1,3.33,1.32,3.19,2.11-.33,1.86-.76,3.7-1.16,5.54a12.4,12.4,0,0,1-2,4.21,21.15,21.15,0,0,1-2.78,3.9c-.68.67-1.36,1.35-2,2-.09.11-.2.2-.31.31-.42.42-1.33.42-1.88.55-.27.08-.53-.73-.79-.79s-.85.5-1,.61c-.86.51-.88.75-1.23,1.82a5.66,5.66,0,0,1-.3.7c-.05.07-.09.16-.14.24a3,3,0,0,1-.39.55,5.31,5.31,0,0,1-.55.62l-.61.57c-.35.34-.7.65-1.05,1A8.17,8.17,0,0,1,385,135h0a2.85,2.85,0,0,1,.33.52,1.62,1.62,0,0,1,.2.42,1.36,1.36,0,0,1,.13.37,1.31,1.31,0,0,1,.09.38,3.21,3.21,0,0,1,0,1.16c-.16,1.31,0,1.58-1.08,2.15a4,4,0,0,1-2.36.41c.09-.74.2-1.47.3-2.21s-.65-.79,0-1.56a.7.7,0,0,0,.16-.72.11.11,0,0,0,0-.13.37.37,0,0,0-.14-.16.49.49,0,0,0-.37-.1c-.55.08-1.44.45-1.62-.42-.09-.44.48-1.51.61-1.95a4.53,4.53,0,0,0-1-.7,1.44,1.44,0,0,0-.37-.16c-.44,0-1.27.77-1.66,1l-1.67,1c-.44-1.1.61-1.91,1.25-2.59-.7-.55-.72-.7-1.47-.33a6.27,6.27,0,0,0-1.34.95,4.41,4.41,0,0,1-1.59,1c-.13,0-1.32.46-1,.82a11.59,11.59,0,0,1,1.27,1.53c.5.81.44.7,1.25.29,1.16-.58,2.06-.09,3.29.24l-4,3.41a5.25,5.25,0,0,1,1.62,1.63c.43.94.87,1.88,1.27,2.8L375,143.7c.74.56,1.48,1.09,2.21,1.62-.53.39-1.08.77-1.64,1.16l2,.61a35.65,35.65,0,0,1-2.61,4.84c-1.15,1.43-2,3-3.65,3.73s-3.53,1.47-5.31,2.11l-1.66.61c-.46.17-.35.17-.24.7.08.35.08,1.07-.55.75-.16-.09-.35-.9-.42-1.12.2,0,.38-.2.59-.24a2.15,2.15,0,0,0-2.43-.29c-.59.46-2,1.18-2.25,1.95-.07.24-.53,1.25-.42,1.45.35.55.72,1.12,1.07,1.68.5.8,1.12,1.52,1.69,2.26.72.94,1.12,1.25,1.18,2.44,0,.72.44,2.45-.11,2.95a58.86,58.86,0,0,1-4.69,4c-.55-.57.2-1.4-.19-1.82-.2-.24-.42-.46-.62-.68s-.65-.68-1-1a4,4,0,0,0-3-1.64c0-.31.07-.63.11-.94-1.25.06-1,.22-1.12,1.58a9.09,9.09,0,0,1-.74,2.34,1.12,1.12,0,0,0-.05.55c0,.17,0,.33.05.48.06.66.06.55.66.52.32,0,.7,2,.81,2.35.19.61,1.37,1.16,1.82,1.51a5,5,0,0,1,1.37,1.54c.27.72,0,1.73.14,2.49a20.27,20.27,0,0,0,.87,2.13,5.83,5.83,0,0,1-2.58-1.53c-.81-.64-.86-1-1.21-2.06-.24-.71-.44-2.39-1-2.92-.75-.81-1.51-1.6-2.26-2.41-.24-.26-.07-1.38.07-2.19a1.09,1.09,0,0,1,0-.26h0c0-.18,0-.35,0-.46a19.11,19.11,0,0,0-.2-3.2,23.29,23.29,0,0,0-1.38-5.66c-.4.49-.81,1-1.21,1.49s-.46.6-1.23.42-.74-.11-.61-1c0-.39.37-1.38.22-1.73-.55-1.25-.85-2.36-1.86-3.17s-1.19-2-1.65-3c-.45.31-1.09,1-1.62,1.06l-2.8.39c-.13,0-.72,0-.81.11s.11.83-.05,1l-1.38,1.42-3.9,4a6.63,6.63,0,0,1-1.88.94c-.7.35-.44.86-.42,1.69a9.9,9.9,0,0,1,0,2.43,5.3,5.3,0,0,0-.52,2.28,2.78,2.78,0,0,0,.13.46c.05.18.09.35.15.51a2.54,2.54,0,0,0,.18.41,2.86,2.86,0,0,0,.18.35,4.16,4.16,0,0,0,.41.51,7.79,7.79,0,0,1,1.18,2.23c.64,1.49-1.9,2.77-2.08.77a18.68,18.68,0,0,1-.08-2.59c0-.85-.27-1-.82-1.59l0,0c-.07.6,0,1.23-.46,1.56l-1.58,1.05c-1.47-2.8-2.72-5.67-4-8.57a15.27,15.27,0,0,1-1.07-2.45,10.55,10.55,0,0,1-.05-1.95c-.06-1.84-.11-3.7-.19-5.55l-1.16,1.62c-.38.53-.44.46-1.08.44s-1.58-1.42-2.08-2c.51-.11,1.6-.06,1.69-.77a3.64,3.64,0,0,1-.92.09,11.1,11.1,0,0,1-2.28-1.31c-.48-.27-.79-1.49-1-2s-4.17.31-4.84.4a13.26,13.26,0,0,1-4.36-.73c-.62-.15-1.34-.08-1.65-.7-.59-1.14-.44-1.47-1.58-1.07a4.24,4.24,0,0,1-2.52.06c-.63-.1-1-.87-1.58-1.13a2.45,2.45,0,0,1-1.64-1.69c-.33-.72-.46-1.64-1.22-1.76-1.3-.19-1.3-.13-2.2.93-.32.37.77,1.7,1,2.08.81,1.36,1.51,2.82,2.24,4.23.11-.64.22-1.28.32-1.93a5.84,5.84,0,0,1,.46,3c.93-.06,2.52.11,3.38-.43a14.18,14.18,0,0,0,2.32-2.65c.05.81-.13,2.12.53,2.58a8.36,8.36,0,0,0,1.21.83c.37.16.83,0,1,.44s.43,1.1.76,1.16c.57.11.35.51.29,1.1s-1.25,1.6-1.62,2c0-.2-.16-.36-.2-.55a4,4,0,0,0-.49,1.88c0,.7-.26.62-.85.92s-1.2.57-1.8.84c-.35.17-.33,1.18-.68,1.35s-.72-.24-1-.11-.88.38-1.32.57c-.59.27-.51,1.08-1.07,1.28l-3,1.07c-.29.11-.35.26-.53.55s-.55.33-1,.41c-.86.16-1.71.44-2.55.68-.63.16-.76.88-1.46.88-1.06,0-1.15.24-1.36-.86s-.42-2.25-.62-3.37a12.85,12.85,0,0,0-2.06-4.4c-.54-.88-.61-1-1.53-1.39-.53-.21-.53-1.81-.62-2.38a9.53,9.53,0,0,0-1.07-2.37c-.24-.46-.76-.68-1-1.18-.59-1.06-1.2-2.11-1.79-3.18-.29-.53-.51-1.43-1.21-1.27.07-.64.18-1.3.26-2-.26.77-.52,1.57-.77,2.34a10.63,10.63,0,0,1-1.94-2.95c-.62.81.48,2.14.85,2.87l2.17,4.44c.44.9.28,1.89.92,2.59.28.3,1,.77,1.05,1.21.11.76.22,1.49.35,2.25,0,.44,0,1.27.35,1.6a7.33,7.33,0,0,1,1.32,1.29,17.91,17.91,0,0,1,1.29,3.49c.15.37,1.2.31,1.45.63.41.46.81.93,1.22,1.41.68.78,2,1.64,1,2.67.7.2,1.47,1.67,2,1.53l5.83-1.57c.35-.09,1.4-.53,1.69,0,.19.32-.49,2.19-.58,2.58-.35,1.56-1.49,3-2.21,4.39a15.22,15.22,0,0,1-2,3.35c-2.36,2.49-5.1,4.77-6.85,7.78-.4.66-2.9,4.09-2.5,4.69a3,3,0,0,1,.63,2.56,2.33,2.33,0,0,0,.68,2.19c1,1.43.7,3.64.77,5.44a4,4,0,0,1-2.08,3.39,8.14,8.14,0,0,0-2.24,1.08l-1.75,2.06c-.51.59-1.14.89-.83,1.66.22.51,1,1.73,1,2.3s.06,2.22-.29,2.76-1.79.84-2.28,1.08c-.83.41-.65.77-.74,1.79a7.82,7.82,0,0,1-.26,2.44,41.57,41.57,0,0,1-3,4.25,23.38,23.38,0,0,1-2,1.73c-.37.31-1.09,1.25-1.58,1.34-1.73.37-3.46.74-5.21,1.09-.79.16-1.6.33-2.39.51-.39.08-1.18-.93-1.45-1.19-.94-.87-.9-.85-.78-2.21.06-.51-.53-1.45-.71-1.91-.41-1-.81-2-1.22-3-.24-.61-1-1.07-1.41-1.51s-.3-1.69-.37-2.11c-.17-1.16-.35-2.32-.52-3.46a14,14,0,0,0-1.71-4.16l-1.32-2.7c-.2-.41.07-1.14.13-1.56.29-2,.35-3.85,1.3-5.56s.35-2.94,0-4.65-.87-3.68-1.29-5.52a6.21,6.21,0,0,0-1.21-1.66l-1.88-2.52c-.33-.46-.09-1.05,0-1.62.13-1.14.26-2.28.41-3.43.11-1,.16-1-.41-1.83s-.62-1-1.64-.92c-.58,0-1.78.41-2.2-.11l-1.81-2.22c-.25-.31-3.91.27-4.37.5l-2.62,1.32c-.66.37-1,.18-1.71,0a3.1,3.1,0,0,0-2-.18c-1,.33-1.89.68-2.85,1-.44.16-1-.44-1.32-.72l-2.75-2a6.64,6.64,0,0,1-2.42-2.46l-3.48-6.05-1.12-1.95c-.17-.3.44-1.42.57-1.73.18-.54.79-1.53.66-2.12-.22-1-.42-1.91-.64-2.88a8.71,8.71,0,0,1-.55-2.47,5.65,5.65,0,0,1,.73-1.34l3.35-6.07c.79-1.42,1.73-1.82,3.07-2.69.7-.44,1-.44,1.14-1.3.17-1.07.33-2.14.5-3.2.18-1.26,2.68-1.49,3.18-2.73.35-.84.5-2,1.36-2.28.22-.07.85,1.11,1.55.94.29,0,1-.37,1.3-.22s.81.57,1,.48a17.71,17.71,0,0,1,2.06-1.22,16.77,16.77,0,0,1,4.3-1.34,4.65,4.65,0,0,1,1.33-.15,3.12,3.12,0,0,0,1,.35c.37,0,.7-.42,1.05-.47a4,4,0,0,1,1,.05,3.67,3.67,0,0,0,2.43-.29c.66-.39,1.27.13,2,.42-.51,1.12-.62,1.16,0,2.24.26.48-.77,1.24-1.12,1.6.55.5,1.23,1.4,1.93,1.59l3.57.93c.9.24.64,1.27,1.56,1.66s1.54.2,2.28.73c1,.72,1.58.91,2.24-.4.17-.31-.35-.79-.18-1.07s.4-1,.64-1a4.52,4.52,0,0,1,2.87-.21c.26.08,0,.61.37.68.53.11,1.07.21,1.6.33s.46.3.68.74c.11.22.54-.28.72-.22l2.57.75a1.94,1.94,0,0,0,2-.16c1-.48,1.09-.63,2.06-.15,1.18.57,3,.39,3.52-1.1.33-.92,2-3.77,1.32-4.71-.4-.61.48-1.88.28-2.12s-.57.17-.78.32-.55-.3-.81-.24-.6.75-.92.9a4.26,4.26,0,0,1-1.19.05c-.74,0-1.05-.77-1.73-.9-.46-.07-.83-.35-1,.17s-.2.57-.77.68-1.51-.68-2-1c-.85-.48-2.32-2.94-1.4-4l-.92.11c-.13-1,1.18-1.29,1.73-1.31a4.55,4.55,0,0,0,2.54-.57c-.3-.14-.59-.29-.87-.44.17-.5,1.24-.27,1.71-.22.89.13.94-.11,1.64-.59a3.27,3.27,0,0,1,1.64-.72,4.76,4.76,0,0,0,2.06-.07c-.17.3.13.55.44.7.48.24.29-.4.79.29.18.24,1.53.45,1.95.63.74.29,1.2-.15,1.93-.06a2.91,2.91,0,0,0,2.1-.66c.6-.37.27-1.4-.09-1.82-.54-.59-1.18-.7-1.75-1.23s-1.09-1.29-1.9-1.4a6.09,6.09,0,0,1-.81-.48c-.33-.22-.62-.48-.93-.71a2.61,2.61,0,0,1,.25-.37c.3,0,.59.13.91.18-.28-1,.33-1.27,1-1.25-.35-.28-.79-.53-1-.92l.9,0c-.22-.68.68-.18.81-.6s-.57-.28-.77-.24c-.76.13-1.57.15-2.08.84v-.25a3.14,3.14,0,0,0-1.8,1,2.33,2.33,0,0,1,.14-.33c-.86-.09-.46,1-.13,1.38s1.13.26,1.83.26c-.5.9-1.07.22-1.62.51s-1.7,1.33-2.32.81c.39-1-.11-.92-1-1.32.43-.24,2.08-.85,1-1.23a3.24,3.24,0,0,0-1.12,0c-.26,0-.63-.39-.85-.56.46,0,1.05.28,1.29-.23-.5.23-1.77-.34-2.08,0s-1.29,1.12-1.36,1.63a4.21,4.21,0,0,1-.2,1.22c-.15.24-.81.2-.87.49-.18.92-.14,1.59-.88,2.06s-.55,1.33-.2,2c.22.44,1.38,1,1.32,1.18-.2.59-1.27-.17-1.63.2l-1.72,1.6c-.07-.63.3-.74.72-1-.33-.15-.72-.15-1.1-.3-.59-.24-.94-.09-1.47-.24-.26-.07-.59.15-.85.26s.09.52,0,.63c-.46.38-.79,0-1.19-.26-.44.5,0,.95.29,1.41.39.69.41.61-.14,1.18.71.5,1.5.68,1.36,1.71-.44-.33-.74-.73-1.18-.16.55.11.61.46.2.77s-.2.51,0,1.05c-.48-.11-.85,0-1.07-.52s-.39-.29-.76,0c-.36-1.27-.62-1.38.35-2.17-.9,0-.9-.11-1.45-.94-.31-.46-.53-1.25-.94-1.58-.71-.59-.46-1.05-.37-2s-.22-.9-.9-1.44c-.88-.69-1.91-1.69-3-1.83-.28,0-.94-.91-1-1.2a2.41,2.41,0,0,0-1-1.64c-.32.92-.69.46-.8-.2s0-.5-.69-.29-1.13.25-.69,1.06c.15.28-.38.94.1,1.31a5.84,5.84,0,0,1,1.39,1c.34.44.28,1.14.69,1.51s.75.77,1.39.8c.41,0,1.13,0,.48.52.59.48,3.51,1.69,2.76,2.69-.29-.15-1.14-1.31-1.47-1a1.24,1.24,0,0,0-.52.9c-.11.42.17.39.46.63.87.66-.57.84-.51,1.25.07.57-1.09,1.56-1,.64a1.2,1.2,0,0,0-.4,1.6c.27.57-.89.76-1,.3-.25-.83-3-.74-1.95-1.95a5.16,5.16,0,0,0,2,.24,5.06,5.06,0,0,0,1.43-.34c.37-.23.06-.49.44-.71s-.38-1.86-.59-1.9-.79,0-.71-.4a.45.45,0,0,0-.7-.44c.07-.39-.77-1-1.1-1-.59.07-.94-.52-1.37-1-.77-.73-1.82-1.12-2.06-2.15s-.22-1-1-1.45c-.42-.22-1-.39-1.27,0a10.42,10.42,0,0,1-2.7,1.78l-1.21-.38-1-.33c-.39-.12-1,.68-1.23.93a.07.07,0,0,0,0,0c-.09.2.28,1.23,0,1.6s-1.27.64-1.66.85c-1.19.62-1.56,1.58-2.26,2.79-.22.37.7.7.26,1.29-.26.37-1,1-.77,1.42-.26.05-.87.07-1,.33s-.42.88-.64.9a15.77,15.77,0,0,1-2.28,0c-.66,0-1.07.81-1.6,1s-1.34-.92-.74-1.34c-.59.28-.86-.7-1.62-.28-.58.34-1-.18-1.54.23a5.17,5.17,0,0,0,.16-1.31c0-.24,0-.5,0-.74s-.28.06-.39-.09c-.44-.68-.11-.84.08-1.62s.71-1.89.42-2.61a3.61,3.61,0,0,1,0-2.11c-.4.33-.68-.3-.51-.7s.92-.37,1.19-.41a1.83,1.83,0,0,0-.13-.24c.72-.64,1.05.22,1.68.08a2.92,2.92,0,0,1,2.06,0c.66.22,1.23-.13,1.84.09a3.71,3.71,0,0,0,1.65.18c.74-.16,1-1.12,1-2,0-.55,0-1.1,0-1.45,0-.9.15-1.18-.68-1.46-.49-.14-.55-1-.46-1.28-.44.11-.27-.17-.46-.24s-.71-.13-.81-.19c-.35-.29-.49-.47-.93-.44a.66.66,0,0,1-.74-.37c.13,0,.26-.09.39-.11a.76.76,0,0,1-.5-.71,3,3,0,0,0,1.49-.26c.9-.64.39.5,1,.35.21,0,1.33-.22,1.27-.53s-.07-.37-.11-.54-.11-.27-.16-.42a3.43,3.43,0,0,0-.19-.44c.24,0,.68-.06.78.2a.31.31,0,0,1,0,.09h0a.72.72,0,0,0,.11.26.44.44,0,0,0,.26.09,2.52,2.52,0,0,0,1.58-.22c-.14,0-.29-.13-.44-.15a1.65,1.65,0,0,1,.3-.29,5,5,0,0,1,1.14-.55c.7-.35,0-.79.31-1.35.15-.25,1.21-.49,1.53-.64a2.45,2.45,0,0,1,1.47-.18c-.22-.08-.79-.13-.79-.39,0,0,.53-.09.57-.15s0-.36.13-.49a3.12,3.12,0,0,0,.57-1.4c.07-.3.55-.24.75-.46.61-.74,1.23-.31,2-.55.11,0,0-.39.18-.41l.61-.09a4,4,0,0,1,1,.09c-.12-.57.38-.42.79-.48-.22-.07-.85-.6-.54-.84.5-.39.06-.35-.11-.87s.17-.84-.29-1.21-.28-.51-.31-1c0-.85.12-1.78,1-1.82.66,0,1.23-.76,1.87-1.09-.46.67-.68,2.08.3,2.32-.57.92-1.66,1.22-1.48,2.45.17.88,1,1.63,1.83,1.25-.12.24-.23.48-.34.72.81.47,1.51-.68,2.21-.76a1.44,1.44,0,0,1,1,.66c.13.46.56.57,1,.79a1.27,1.27,0,0,0,.07-.44l-.68-.07c.5-.31,2.26-.35,2.61-.81a2.56,2.56,0,0,1,2.46-.75c0,.75,1.06.86,1.44.38.15-.16.22-.62.32-.71s.31,0,.4-.1c.26-.24.61-.36.79-.68a1.75,1.75,0,0,1-.49.74c1.28.62.51-1.75.47-2.34a1.71,1.71,0,0,1,.39-1.19c.28-.33.06-.85.51-1.2,1.15-.84,1.42,1,2.27,1.1.48,0,.81-.64.73-1s.19-1.36.11-1.42-.36.2-.46.13-.33-.37-.51-.53-.35-1.11-.22-1.16a5.56,5.56,0,0,1,2.67-.76l2,.24c.92.11.15-.22.68-.55.35-.22.87-.09,1.27-.35s.92.09,1.24.13c-.19-.61-1.4-.83-1.94-1,.1-.13.1-.37.21-.5-1.84.35-3.74.81-5.61,1.16-.19.06-1,.33-1.09.13a1.68,1.68,0,0,0-1.07-.94c-.73-.29-.68-.24-.55-1.08a2.84,2.84,0,0,0,0-1.42,5.66,5.66,0,0,1-.42-1.69c.07-.37.83-.94,1.07-1.21.59-.68,1.4-1.13,2-1.84.29-.35.75-1.22,1.14-1.4s.93.18.73-.55a1.83,1.83,0,0,0-1.87-1.4c-1.29-.06-1.4-.09-2.29.9-.57.63-.86,1.14-.4,1.95s-3.05,2.52-3.35,2.89c-.86,1.1-2.33,2.85-1.4,4.47.41.68,1.55.66,1.92,1.47.26.55-.7,1.05-1.12,1.4-.72.62-1.27.88-1.42,1.85a11.43,11.43,0,0,1-.41,2.69c-.42,1-1.15,1-2,1.18-.33.07-.31.48-.4.82s-.37.3-.78.32c-.6,0-.66.2-.75-.48a2.75,2.75,0,0,1-.11-1.23c.26-.7-.75-1.55-1.16-2.08-.18-.24-.07-.66-.2-.94a5.86,5.86,0,0,1-.53-1.1c-.08-.37.23-1-.17-1.07s-.39-.68-.52-1a2.09,2.09,0,0,1-1.15,1.58c-.54.37-1,1-1.49,1.27-.83.52-2.95.26-3-1-.06-1.6-.68-3.13-.61-4.71.07-1.36.16-1.36,1.16-2.21a8.9,8.9,0,0,1,1.76-1,5.49,5.49,0,0,0,2-1.28c.53-.59,1.07-1.14,1.64-1.69,1.23-1.16,1.78-2.62,2.68-4.07a27.45,27.45,0,0,1,3.11-3.7c1.07-1.19,2-2.52,3.46-3.16a41.78,41.78,0,0,1,4.8-1.75c.62-.18.95-1.21,1.53-1.54a3.33,3.33,0,0,1,2-.35,4.61,4.61,0,0,0-1.4,2.39c.72-.15,1.33-1.34,1.79-1.91.09.34.15.71.22,1.08.33-.44.66-.86,1-1.31.13-.18,1,0,1.2,0-.2.35-.41.67-.61,1,.87.65.37-.93,1.07-.66l2.21.87c.62.24-.54.82-.78.88a7.42,7.42,0,0,1-1.8-.17c.28.5.85.32,1.1.91.06.14.8-.1,1.07-.08.63.06,1.22.33,1.64-.22.18-.27,1,.31,1.25.44-.17.59-.72.22-1.12.11-.19,1.22,1.91.76,2.48.78a5.15,5.15,0,0,1,2.8.93,14.88,14.88,0,0,0,2.9,1.4A3.15,3.15,0,0,1,284.43,84c.3.92.26.91-.25,1.7-.32.47-.43.79-.94,1a3.81,3.81,0,0,1-2.69.17,24.48,24.48,0,0,1-5.9-2c.59.59,2.24,1.7,2.24,2.58s-.15,2.67.66,3,2.08,1.43,3,1.06c.53-.22.25-1.06-.28-1.06s-.74-.48-1.1-.94c.82-.76.88-.57,1.89-.22l2.48.86a16.91,16.91,0,0,1-.64-1.89L284.75,87c.33-.23.93-.85,1.32-.74l2,.59c.07-.37.38-1.07.25-1.44,0-.09-.68-1.14-.71-1,.14-.63.29-1.21.42-1.82.06-.22-.64-.87-.79-1,.79.09,1.6.2,2.39.31.61.08,1,1,1.36,1.47-.39,0-1.56-.07-1.76.3-.35.59.29,1,.68,1.49s1,.2,1.63.09c.76-.09.21-.66.61-1.2.18-.24.88-.38,1.14-.51.72-.31,1.44-.64,2.15-1,1.11-.49,2.21-1,3.29-1.49.32,1,.32,1,1.27,1.27.63.15,1-1,1.51-1a3.06,3.06,0,0,0,2-.13,2.34,2.34,0,0,1,2-.17c-.13.24-.28.48-.42.72,1,.31,1,.35,1.63-.53s.23-.92-.38-1.73a7.05,7.05,0,0,1,4.91.18c1,.41,2,.79,2.94,1.18a10,10,0,0,1,2,1.55c.06-.37.43-1.62.13-1.83-.71-.55-1.45-1.08-2.17-1.63-.48-.35.28-1.36.5-1.86s-1-.83-1.27-1l2.13-1.69c.48-.39.68-1.79.89-2.39.27-.76,3.66,0,4.45.13-.32.82-.61,1.67-.92,2.5-.17.42.57,1.43.77,1.84.35.73-.83,4-.24,4.39s1.49.56,1.12,1.44c-.22.49-.46,1.65-.9,1.93-.75.46-1.52.94-2.3,1.4-.33.2-1.36-.15-1.76-.2,1,.8,2.09,1.5,3.4,1.06,1.05-.33,2.23-1.78,3-2.57s-1.36-2.21.46-2.76c.35-.11,1.34-.65,1.62-.33.46.55.92,1.08,1.39,1.62-.11-.72,0-1.38-.58-1.79a1.67,1.67,0,0,0-1.71-.42c-.23.05-2,.44-2.06.27-.13-.49-.57-1.36-.37-1.84s.95-1.37.57-2-1.29-1.39-.94-1.91c.42-.68,1.08-.79,1.78-1.08.54-.22.08-1.46-.05-1.77.38-.11,1.14,1,.92,1.38-.54,1-.48,1,.09,2,.37.68,3.18.69,3.9.73a25.9,25.9,0,0,1-3-1.23c-1.14-.53.83-1.38,1.29-1.53,1.38-.44,1.95-.11,3.31.41a7.85,7.85,0,0,1,1.2.73c.36.26.88,0,1.3,0a5.15,5.15,0,0,0-.53-1.49c-.28-.26-1.25-.21-1.6-.28s-.55-2.1-.65-2.63l4.6-.46,2.61-.28c.57-.05.35-.66.37-1.25,0-1.14-.05-1.14.83-1.67a15.64,15.64,0,0,1,1.95-1.16,30.69,30.69,0,0,1,4.65-.86,45.25,45.25,0,0,0,8.23-1.88c.62-.24.34-1.27.84-1.53.81-.4,1.6-.81,2.39-1.21.94-.5,2.67-.5,3.37.53-.76.24-1.51.46-2.25.68l3.55.52-1.45,1.29,2,.12c0-.25-.11-1.25.13-1.23l1.54.06a4.08,4.08,0,0,1,2.3.31,9.88,9.88,0,0,1,2.3,1.6c.13.17.79.85.7,1s-.31,1-.53,1.14L358,71.62l6.62-1.88c-.57-.07-1.14-.16-1.69-.26.68-.57,1.71-1.12,2.52-.51,1.21.88,1.49.83,2.94.7a28.21,28.21,0,0,1,5.72.42c-.36.2-.73.42-1.08.65.46.22,1.3.86,1.78.84l2.28-.11c.45,0,1.7.2,1.77-.39.17-1.15.05-1.12,1.08-1.14a12.18,12.18,0,0,0,2.18,0c.51-.09,1.61-.57,2.13-.41s1.18,1.35,1.54,1.77c.22.26-.25,1.66-.27,2a7.11,7.11,0,0,0,.27,2.15c.7.41,1.38.8,2.08,1.18.32.19,1.23-1.38,1.46-1.67.58-.79.47-.89,1.28-.37s1,.81,1.92.51c.57-.18,1.27-.62,1.85-.33.41.22,1.33,1,1.79.78l2.13-.89c-.2-.36-.88-1.14-.62-1.49s.86-1.47,1.17-1.43c1.36.16,2.74.35,4.11.53a23.87,23.87,0,0,1,3.1.79,15.87,15.87,0,0,1,3.57.92c.61.33,2,2.58,2.58,2.47,1.36-.22,2.72-.46,4.1-.7a7.54,7.54,0,0,1,3.27.66c.67.2,1,.09,1.2.81a2.2,2.2,0,0,1,0,1.67,6.45,6.45,0,0,0,3.22.61,8.84,8.84,0,0,1,3.62-.07c.5.07,1.18.38,1.62,0,.68-.49.59-.51,1.18.08.44.42,1,1.32,1.58,1.54s1.22-.13,1.62-.16q-.19-1.38-.39-2.73l5.87.46c1.53.11,3,1.18,4.4,1.86,1.6.77,3.14,1.6,4.69,2.5,1,.54,1.1.59,1.51,1.69s.33,1.62,1.54,1.62c-.14-.49-.29-1-.44-1.49a8.08,8.08,0,0,1,3,.46A8.66,8.66,0,0,1,455.92,87Z" style="fill: rgb(87, 144, 184); transform-origin: 336.62px 145.449px;" id="el5ppj870sjii" class="animable"></path><path d="M258.85,108.83a1.33,1.33,0,0,0-.49-.2s0,0,0,0S258.77,108.77,258.85,108.83Z" style="fill: rgb(87, 144, 184); transform-origin: 258.605px 108.73px;" id="el62hpt04mums" class="animable"></path><path d="M172.3,116.37c0,.22.41.29.58.39s.16.62.18.88c.4-.11,1.75-.61,2.08-.24s.49.5.4,1.14c0,.22.65.39.74.77.13.59.53,1.84.18,2.39s-.42.46-1,.26-.56-.26-.41-1c-1,.07-1.19.74-2.17.94a.74.74,0,0,1,.57-.79,5.42,5.42,0,0,0-3.22-.43c-.33,0-1.16.15-1.4-.23A2.36,2.36,0,0,1,169,119a8.62,8.62,0,0,0,2.13-3.16c.35-.85,1.38-2.14,2.34-1.75l-.46,1C172.51,115.54,172.29,115.62,172.3,116.37Z" style="fill: rgb(87, 144, 184); transform-origin: 172.692px 118.067px;" id="elzjh71qhemqa" class="animable"></path><path d="M357.46,192.87c0,.22-.1.44-.1.66-1.08-1-2.07-2.06-3-3.13a6.71,6.71,0,0,1-1.31-1.65,11.2,11.2,0,0,0-1.19-2.65c-.24-.24-.57-.11-.68-.46-.13-.53-.28-1-.41-1.56-.24-.89-1.36-.7-1.4-1.66s-1-1-1.49-1.47c-.22-.16-1.41-1.67-1.15-2,.14-.22,1.65.37,2,.39,1,.12.85.51,1.38,1.26a14.07,14.07,0,0,0,1.66,1.53c.59.55,1.3.76,1.78,1.42.24.35.54.31.94.37.68.12.22.23.61.53s.61,0,.61.62c0,.32.69.26.8.79.08.35-.35.5-.27,1,0,.29.66.4.9.5s.24.9.29,1.14c.08.44.59.42.06.95a.92.92,0,0,1,1.54,1,26.81,26.81,0,0,0-.27,3.05C358.28,192.58,358,193.51,357.46,192.87Z" style="fill: rgb(87, 144, 184); transform-origin: 352.92px 186.215px;" id="elvud242jq81o" class="animable"></path><path d="M231.92,109.84l-.2,0a.71.71,0,0,1,.44-.61A.47.47,0,0,1,231.92,109.84Z" style="fill: rgb(87, 144, 184); transform-origin: 231.958px 109.535px;" id="el1aqfxjq5vzy" class="animable"></path><path d="M144.6,70.74a.79.79,0,0,1,.21-1.48l1.32.5c.37.13.88-.15,1.21,0a6.11,6.11,0,0,1,2.4,1.91,7.73,7.73,0,0,0-1.86-.07c-.44.09-1.69.64-2.08.4-.22-.13-.64-.27-.79-.48C144.71,71.16,145.16,71,144.6,70.74Z" style="fill: rgb(87, 144, 184); transform-origin: 146.954px 70.6601px;" id="elbp8dgzgypiq" class="animable"></path><path d="M151.65,162.43c-.26-.77,1.87.09,2.39-.28-.53-.79-.44-1.05-1.29-1.45.83-.39,1.05-.11,1.9-.11a2.08,2.08,0,0,0,.75-.19c.28-.16.74.15,1,.24s.39-.16.61.26.33.57.9.68c.24.06.77.37.62.63-.36.59-.25.14-.77.14-.7,0-1.12.21-1.75.23-.11,0-.2-.35-.55-.1s-.2.89-.4,1c-.48.17-.41-.64-.59-.74s-.66,0-.94,0C152.68,162.56,152.37,162.94,151.65,162.43Z" style="fill: rgb(87, 144, 184); transform-origin: 155.092px 161.929px;" id="elbb0w61kba1" class="animable"></path><path d="M260.71,78.3l-.12-.35a1.22,1.22,0,0,1,.54,0C261.17,78.35,261,78.52,260.71,78.3Z" style="fill: rgb(87, 144, 184); transform-origin: 260.863px 78.1584px;" id="eledgpgynh73" class="animable"></path><path d="M252.81,82.64c0-.11,0-.22,0-.33.22-.21.42-.24.61,0A.56.56,0,0,1,252.81,82.64Z" style="fill: rgb(87, 144, 184); transform-origin: 253.115px 82.3947px;" id="el6a6wuoottv7" class="animable"></path><path d="M93.21,73.83a3.43,3.43,0,0,1-.59.11c-.13-.61.39-1,.72-1.46s-.37-.86.64-1c0,0,0,0,0,0-.52-.5.38-1.36.77-1.73.2-.17-.66-1.32-.86-1.67,1.15-.17,2.31-.32,3.45-.5.76-.09,1.49.63,2.28.81v0a1,1,0,0,0,.34.06,1,1,0,0,0,.33-.06c-.06.15,0,.31-.11.46.77-.86,1.74-.5,2.63-.13a6.53,6.53,0,0,1,1.23.81c.57.39.61.63.11,1.07-.77.68-2.23,1-3.15,1.38-.42.18-.66.16-.79.64s-.68,1-1.19.63l-.32,1.56a6.79,6.79,0,0,1-1.06.5c-.13,0-.08-.32-.22-.24l-.52.31c-1.1.63-1,.64-1.86-.35A4.8,4.8,0,0,0,93.21,73.83Z" style="fill: rgb(87, 144, 184); transform-origin: 98.5489px 71.6957px;" id="eli6z7cxgl0w" class="animable"></path><path d="M148.56,159.69c0-.48-.7-.3-.88-.39-.72-.33-.74-1.08-1.38-1.18s-1.29-.55-2-.58c-.39,0-.43-.3-.79-.19a.83.83,0,0,1-.87-.31.75.75,0,0,0,.61-.11c-1.18-1.2-2.52,1.49-3.72.86.61-.38.81-1.1,1.55-1.28a6.82,6.82,0,0,1,2.59-.35,10,10,0,0,1,4.43,1.91c0-.07.06-.13.1-.19a2.29,2.29,0,0,0,1.89.92c.15,0,.33.5.66.56a2.51,2.51,0,0,1,1.11.66c-.46.15-.94.29-1.4.4-.9-.07-1.79.15-2.67,0C148,160.29,148.56,159.85,148.56,159.69Z" style="fill: rgb(87, 144, 184); transform-origin: 145.695px 158.311px;" id="elzschofnlrql" class="animable"></path><path d="M229.88,105.39c.16-.2.53-.33.57-.48a1.34,1.34,0,0,1,.4-.79,1.43,1.43,0,0,0-.27-.09l.18-.09c-.2-.08-.35-.06-.29-.35.09,0,.2,0,.31.07-.11-.18-.13-.44-.24-.63a.79.79,0,0,1,.81.08c-.15-.13-.28-.33-.42-.48,0-.06,0-.15.11-.29l.35-.06c-.19-.42.25-.86.34-.35.37-.16.1-.13.34,0a2.71,2.71,0,0,1,1.65-.31c-.15.77-1.1.9-1.19,1.4-.13,0-.26,0-.39,0a3.8,3.8,0,0,1,.55.16c-.18.11-.27.35-.42.5l.11.09c.24-.48,2.33-.74,2.65-.26.48.74-1.35,1.71-1,2.54a.79.79,0,0,0-.83.33c1.29.19,1.88.3,2.32,1.71.33,1.12,1.47,1.24,1.69,2.58a.62.62,0,0,0-.81-.26c.52,0,1.57.9.87,1.4.16.18,2-.53,1.84.53s-.63,1.33-1.4,1.9c.31,0,1.86.35.85.77a11.63,11.63,0,0,1-2,.48c-.44.11-.51-.32-.92-.33s-.84.42-1.1.55c-.92.44-1.1-.57-1.62.68-.88-.65-1.56.66-2.21.2.35-.39,1.16-.79,1.29-1.29.24-.92,1-.6,1.71-.51a1.88,1.88,0,0,1,.52-.83l-1.12.39c-.1,0-.63-.3-.83-.3a1.1,1.1,0,0,0,.18-.14c-.51-.3-.95.47-1.3-.12a2,2,0,0,0,0-.29c.29-.11,1.07-.26,1.25-.51.35-.5.06-.65.13-1.16-.26,0-.52.09-.79.14.4-.27.62-.62.18-1a.44.44,0,0,1,.63.28c.35-.28.68-.12,1.08,0a2.86,2.86,0,0,1-.07-.28c.2.11.15,0,.31.2l.13,0a1.28,1.28,0,0,1-.09-1.51c-.66.5-1.22-1.16-.17-1.42-.6-.07-1.16.5-1.6.21.17.49-.27.12-.55,0a2.3,2.3,0,0,0,0,.37c-.61-.46-.09-.53.07-1s.09-.37,0-.81-.13-.44.19-.46a4.17,4.17,0,0,0-.13-.42c-.39.81-.85.35-.3-.11-.47.18-.46.62-.51,1s.05,1.07-.33.72c-.19-.17,0-.28.09-.5.17-.44,0-.44,0-.79.13-.5.2-1,.68-1.29-.06,0-.08-.11-.13-.14-.28.25-.48.58-.81.47.44.37-.24.63-.53.35C230.39,105.7,230.37,105.5,229.88,105.39Z" style="fill: rgb(87, 144, 184); transform-origin: 234.5px 109.144px;" id="elzgnxu8m8ife" class="animable"></path><path d="M231.24,107.45a.79.79,0,0,1-.2-.52C231.31,107,231.39,107.19,231.24,107.45Z" style="fill: rgb(87, 144, 184); transform-origin: 231.177px 107.19px;" id="elv8mx32v7cwq" class="animable"></path><path d="M105.5,62.61c.85.33.46.75,1.53.55.57-.09,1.14.66,1.58,1a2.68,2.68,0,0,1-.33.18c.68,0,.77-.13,1,.63.08.33,1.25.2,1.53.22.57,0,1.2.35,1.29-.31,0-.34-1-.59-1.31-.72l.85-.33-1.25-.77a6.51,6.51,0,0,0,.53-.48c.15-.17.29-.33.44-.52h0c.05-.09.13-.18.2-.29a.84.84,0,0,1,.59-.08.63.63,0,0,1,.27.45,1.67,1.67,0,0,1,.06.2l.06.22a.36.36,0,0,0,.07.18.67.67,0,0,0,.22.33c.28.22.35.81.66.92.5.15.7.24.87.83.44-.57-.5-.9.64-1.07.94-.12,1,.56.85,1.25s-.37,1.24-.91,1.24H113.7c-.38,0-.42.42-.66.44-.48,0-.75-.44-1.25-.28-.86.32-1.71.65-2.58.94-1.54.57-2.13.87-3.56-.07,1.17-.41,2.92-.55,3.77-1.46-.44.32-1.46.61-1.71,0-.06.59-1,.41-1.46.45.1-.46.32-.87-.22-1-.24.88-.37.94-1.1,1.38-.09-.57-.77-.68-.55-.08a5.08,5.08,0,0,1-.87-.24c0-.11.06-.22.09-.33a2.53,2.53,0,0,1-1.69-.13c.5-1,2.17-.47,3-1.14-.27.06-2.37.7-2.44.13s2.44-.48,2.72-.66c-.63,0-1.58.26-2.14-.05v-.43a4.29,4.29,0,0,1,2.28-.18c-.25-.08-1.3-.2-1.3-.52S105.33,62.55,105.5,62.61Z" style="fill: rgb(87, 144, 184); transform-origin: 108.911px 64.7714px;" id="el7o3r06wpizh" class="animable"></path><path d="M405.91,244.92a2.25,2.25,0,0,1-2.05-1.58,6.54,6.54,0,0,1-.36-3l1.87.84c.33.15,1.4-.53,1.75-.66C408.37,240.91,407.16,245.16,405.91,244.92Z" style="fill: rgb(87, 144, 184); transform-origin: 405.552px 242.635px;" id="el8i6mivd0dl3" class="animable"></path><path d="M375.54,165.48c.11-.42-.28-.53-.22-.92.13-.7.24-1.41.35-2.11.05-.28.55-.45.79-.41.75.17.36.61,1.23.19.28.58-.22.79-.13,1.21.17.79.5.4.2,1.32a2.63,2.63,0,0,1-.2.72c-.11.17-.53-.15-.51.15,0,.77-.52.5-.1,1.34.22.44,0,1,.59,1.05.2,0,.26-.46.55-.39a1.92,1.92,0,0,1,.67.24,3.55,3.55,0,0,0,.7.43c.18,0,.22-.46.44-.23.47.5.09.8-.46.52,0,.74.77.51.4,1.31-.22-.15-.92-.46-.92-.72,0-.76-.13-.66-.77-.9,0,.31-.09.6-.15.92a1.69,1.69,0,0,0-.55-.63c-.64-.38-.46,0-1,0s-1.09-.77-.35-1.16c-.35-.12-.94-.16-1-.6s-.42-1.31-.14-1.79C375.17,165.17,375.35,165.32,375.54,165.48Z" style="fill: rgb(87, 144, 184); transform-origin: 377.484px 165.967px;" id="el6pk0bg988j4" class="animable"></path><path d="M225.21,113.5a2.25,2.25,0,0,0,.58-.29c-.18,0-.36-.13-.55-.17a1.12,1.12,0,0,0,.76-.5c.18-.27.82-.27,1.14-.33a2.42,2.42,0,0,0-1.38.15,7.28,7.28,0,0,1,1.08-1.16,3.2,3.2,0,0,1-1.34-.4c.17-.17.57-.43.5-.67-.15-.51-.28-.57.16-.82.24-.13.61.07.87.14s.57-.16.9-.42l-.78-.27c.39-.67,1.18-1.57,2-1.09L229,108c.24,0,.9-.35,1.06-.14s.39,1,.76.88c-.08.9-.32.92-1,1.42a1.85,1.85,0,0,1,.44,1.49c-.11.38-.24.77-.35,1.16s-.39.11-.74.22c-1,.27-2.44,1.93-3.49,1,.13-.08.2-.24.33-.32Z" style="fill: rgb(87, 144, 184); transform-origin: 228.015px 110.922px;" id="el7yk4peelon2" class="animable"></path><path d="M131.16,65.09c.57-.57-.33-1.31-.66-1.69-.56-.67-.92-.37-1.7-.28s-1.32.28-2-.44-1.08-1.22.06-1.53a5.64,5.64,0,0,1,2.26.24c.64.09,1,.72,1.67.85s1.4-.44,2.06,0c.37.24.13.5.65.64l1.1.32c-.15.6-1.43.09-1.32.51,0,0,1.32.77,1.49.88l1,.61c.17.11.55-.28.76-.29a7.86,7.86,0,0,1,2.22.47,3.68,3.68,0,0,1-.38-.31,13.35,13.35,0,0,0,1.85-.51c.67-.22,1.16.09,1.77-.11a4.09,4.09,0,0,1,3.9,1.19c-.28.2-.55.42-.85.63a1.87,1.87,0,0,1,1,.4c-.63.2-.85.15-1,.81-.1.31-1.42.33-1.7.37a2.24,2.24,0,0,1-1.28-.24c-.54-.2-.13-1-.87-1,.06.29.09.59.15.86-.54.09-1.62.59-1.8-.18-.21.77-1.16.57-1.55,0a4.35,4.35,0,0,1,0,.52c-.7,0-1.42-.08-2.12-.09s0-.81-.66-1.07a4.46,4.46,0,0,0-.13.73c-.07-.16-.26-.27-.35-.44-.11.72-.53.54-1,.48s-.57-.15-.84-.73c-.35.25-1.13.79-1.38.2C131,66.08,130.81,65.93,131.16,65.09Z" style="fill: rgb(87, 144, 184); transform-origin: 136.091px 64.4934px;" id="el0v4rbivixcc" class="animable"></path><path d="M229.73,106.81a1.48,1.48,0,0,1,.39-.28c.16.31.13.55-.17.64C229.84,107,230,106.88,229.73,106.81Z" style="fill: rgb(87, 144, 184); transform-origin: 229.973px 106.85px;" id="elmabeht7yw6" class="animable"></path><path d="M133.29,49c-.64-.3-1.27-.59-1.91-.91,1-.55,2.17-1.19,3.11-.36.71-1.6,2.54-.81,3.9-.9l-1.09-.52c.52,0,1,0,1.55,0-.1-.27-.21-.55-.32-.81.46,0,1.14-.12,1.53.15a8.11,8.11,0,0,0,1.8,1.16c1.35.35,2.71.68,4,1-1.21-.66-2.45-1.32-3.66-2,.4-.34,1-1.1,1.53-1.14s.95-.07,1.43-.09c.33,0,.41-.42.7-.53a4.76,4.76,0,0,1,2,.37l2.18.88c-.61-.52-1.24-1-1.86-1.53l3.11.06c.71,0,1.5.84,2.11,1.25-.18-.35-.35-.68-.51-1a34.23,34.23,0,0,1,3.86-.57,30.77,30.77,0,0,1,4,.57l-2.12,1.19a9.86,9.86,0,0,1,3.79-.46,27.14,27.14,0,0,1,4.31,1.15c-1.07.57-2.56,1.82-3.76,1.91-1.65.11-3.31.24-5,.37l2.24.38c-1.29.39-2.57.77-3.86,1.14l6.34-1.27c-.07,1-2.85,1.75-3.71,2.28a8.93,8.93,0,0,1-2.21,1.35c-.83.18-1.65.35-2.48.51l1.54.08a4.48,4.48,0,0,1-1.56,1.25c-.5.25-1.18-.13-1.67-.26.07.26.14.51.22.77-1.42.28-2.85.42-4.29.59.59.06,2.85-.22,2.67.74h-2.38c.58.14,2.38.2,2.3,1l-2.06.28c.39.2.78.4,1.18.63a2.5,2.5,0,0,1-1.56,1.15c-.41.15-1.35-.46-1.58-.25s.75.59.05,1.19c-.22.21-1.47,1.11-1.21,1.49s.29.3.73,0,.44-.06.83.16c.22.13.17.67.2.92s-.53.32-.7.37-.46-.24-.53-.2-.29.44-.5.52l-2.06.62c.15-.61.35-.81-.12-1.18-.32-.27-.58.39-1.07-.13-.06.94-1.14.43-1.4-.14.15.73-.5.46-.86.33s-.59.4-1.2.4a13.16,13.16,0,0,1-1.53-.13c-.51-.05-1,.37-1.12-.4-.29.88-1.34.33-1.38-.46-.44.51-.61,1-1.12.33.39-.26-.11-.5.07-.72s.85-.36,1.13-.49c.79-.33,1.17-.13,1.83-.81-.93-.09-.95-.19-1.43-1.09a3.53,3.53,0,0,1,2-.13c.59.1.64,1,1.3,1.2,1.66.42,2.27-.52,3.2-1.84-.57.61-1.73,2.06-2.7,1.36-1.23-.88-.2-1.56.18-2.72-.53.5-1.08,1.42-1.8,1.25-1-.22-2-.29-.94-1.38s3.31-1,4.62-.28a7,7,0,0,0-2.06-2.48c-.9-.62-2.56-.51-1.71-2.17,0,.07,2.79.07,3,.13a14.23,14.23,0,0,1,2.94,1.78L141.72,52c2.09-.39,4.13-.83,6.19-1.36l-1-.44,1.55-1.4a9.34,9.34,0,0,0-3.06,1.88c-.31.29-1.29.27-1.67.35-.65.12-1.29.23-1.93.36.38-.33.79-.64,1.17-1-.53.15-1,.31-1.56.48.13-.13.22-.32.35-.44-.22.07-.94.14-1,.4-.07.74-.14.59-.8.59a18.22,18.22,0,0,1-2.43-.26,5.52,5.52,0,0,1,2.59-1.42,4.78,4.78,0,0,0-2.89.94c-.88.59-1.84,0-2.79-.29a6.09,6.09,0,0,1,2.43-.48,6.24,6.24,0,0,0,2.59-.88,15.9,15.9,0,0,1-3,.68c-1.1,0-2.09.59-3-.09l1.65-1.4Z" style="fill: rgb(87, 144, 184); transform-origin: 149.055px 53.595px;" id="el15fd9mzfvd" class="animable"></path><path d="M442.58,76.86c0-.2-.4-1.47-.27-1.53a5.26,5.26,0,0,1,1.67-.7l2.1.12c.53,0,.84.45,1.25.82-.7.79-1.49.78-2.49,1-.29.07-.55-.17-.86-.07Z" style="fill: rgb(87, 144, 184); transform-origin: 444.807px 75.745px;" id="elvug838yjs7g" class="animable"></path><path d="M211.58,78.37l-4.53,2.76a15.71,15.71,0,0,1-4.16,1.23l-2.77.75c-.61.15-.78.5-1.2,1a11.83,11.83,0,0,1-1.65,2.06,8.31,8.31,0,0,1-2.08.68l-3,1c-.74.24-.72.26-1,1.07-.55,1.51-1.08,3-1.56,4.52-.63,1.9-1.23,3.81-1.84,5.7,0,.17-1.4.13-1.64.06l-2.94-1.09c-.48-.18-1.34-.27-1.65-.75-.61-1-1.24-1.91-1.84-2.89a24.41,24.41,0,0,1-2.87-5c-.41-1.14-.81-2.28-1.22-3.44-.27-.78.17-2.15.28-3,0-.15,0-.94.15-1,.57-.22,1.12-.48,1.67-.7.16-.07.92-.25.94-.46.07-.6.14-1.21.22-1.82l-2.41.72c-1.1.33-1.05.35-1.88-.57-.66-.72-.25-1.25,0-2.23S174,75.66,173.39,75s-.13-1.19.17-2.06.18-1-.23-1.91a20.75,20.75,0,0,0-2.42-4.74c-.26-.34-1.09-1.83-1.49-1.9L167,64a14.76,14.76,0,0,0-4.58-.39l-2.65.33c-.44.06-1.54-.88-1.93-1.12l-2.36-1.38c-.57-.35-1.06-1.43-1.47-2-.13-.18-.75-.81-.7-1s.06-1.14.39-1.23l4-1.14a13.05,13.05,0,0,1,3-.59c.72,0,.83.11,1.11-.61s.51-1.28.75-1.93c-1.16-.13-2.19,0-3-.92q3.44-1.76,6.88-3.55c.92-.46,1.86-1,2.78-1.43a8.82,8.82,0,0,1,2.52-.35l4.91-.64a8.92,8.92,0,0,1,2.5-.34,45.67,45.67,0,0,1,6.77,2c-.81-1.36-2.22-2-3.49-2.78l4-1.85c.92-.43,2.08.09,3.06.25.81.13,1.6.28,2.41.43.62.11.68-1,1.16-1.27.31-.19,1-.09,1.34-.13l3-.26a37,37,0,0,1,8.24.66,26.19,26.19,0,0,1,6.93,2.45l-3.62,1.31c.75.6,1.6.42,2.48.46,1,0-.4,2.28-.51,2.5.73-.32,2.26-1.38,3-1.25s1.34.24,2,.33.81-.54,1.16-1c.57-.68,2.22-.51,3-.36a21.08,21.08,0,0,1,3.35,1.3c-1,.57-1.93,1.12-2.91,1.69a8.27,8.27,0,0,1-2.61.65c.24.22.48.42.74.62a11.26,11.26,0,0,1-2.17,1.93c-.76.54-1.68.87-2.18,1.7s-1.58,1.85-1.21,2.72c.48,1.16,1.1,1.42,2.08,2.08l-2.78,2.72,1.91,1.31c.52.35.45,1.32.56,1.93,0,.27.47,1.87.31,2.08-.64.69-1.29,1.39-1.91,2.09-1,1.05-1.24,2.78-1.71,4.14-.19.53.36,1.79.49,2.34C212.33,77.52,212.27,77.5,211.58,78.37Z" style="fill: rgb(87, 144, 184); transform-origin: 188.369px 70.6706px;" id="elf4tv3e39hfa" class="animable"></path><path d="M341.71,53.17c.11-.28.41-1.29.64-1.34s1.27-.19,1.35-.44c.18-.76.11-1,.77-1.16s1.16-.37,1.75-.54-.06-.68.81-.64,1.93,1.31,2.57,1.76c-1,.3-1,.17-.79,1.29.09.52,1.16.48,1.6.59l-.94,1c.94-.36,1.44-.79,2.34-.29.4.22,0,.77-.17,1.18s.24,1,.33,1.28a3.06,3.06,0,0,1-2.35.13,4.84,4.84,0,0,0-2.69-.25c-.91.09-1.26-.89-1.85-1.64-.44-.59-1.75-.17-2.41-.13C342.52,53.85,341.66,53.32,341.71,53.17Z" style="fill: rgb(87, 144, 184); transform-origin: 346.845px 52.6062px;" id="elkka5poc94pp" class="animable"></path><path d="M400.06,113.68a6.22,6.22,0,0,0,.27-2c-.13-.46-.24-.52.11-.79s.39.09.57-.08c.44-.4.19-1-.22-1.45,1.07-.81.7.83,1,1.42.57,1.1-.3,1.65-.12,2.77.06.35.46.63.56,1,.13.51.25,1,.38,1.53a11,11,0,0,0,1.05,2.88c-.66,0-.59-1.16-1.25-1-1,.21-.92.5-1.27,1.59-.26.79,0,.93.42,1.63.32.55,1,1.47.45,2.06,0-.49-.26-1.23-.85-1.14s-.59.87-.7,1.36a3.81,3.81,0,0,1-.2-2c0-.3-.24-.7-.08-1a1.11,1.11,0,0,0,.21-1.12c-.19-.94-.54-1-.09-1.88a5.11,5.11,0,0,0,.25-2.28C401.12,114.59,400,114.27,400.06,113.68Z" style="fill: rgb(87, 144, 184); transform-origin: 401.859px 116.3px;" id="elgxi4mojm50i" class="animable"></path><path d="M290.47,51.59c-.5-.15-1-.28-1.49-.41,1.45-.44,2.42-.88,3.88-.53a4.17,4.17,0,0,0,2-.31c.72-.19,1.1.16,1.71.57-1.08.24-2.17.49-3.25.75.09.31.16.61.25.92a7.09,7.09,0,0,1-2.7-.44c.53-.35,1.08-.74,1.64-1.1Z" style="fill: rgb(87, 144, 184); transform-origin: 292.775px 51.4353px;" id="elqism49m2f4l" class="animable"></path><path d="M441.7,237.73c-.13.13.16.61-.2.44s-.92-.11-.9.43a6.45,6.45,0,0,1-1.05,2.52c-.44.88-1.11.57-1.69.2.31-.35,1.1-1.18.77-1.8-.11-.21-.72-.22-.89-.33a8.06,8.06,0,0,1-.82-.74,2.58,2.58,0,0,0,1.12-1.58c.24-.61-.2-1.22,0-1.86-.61.2-1.16-1.78-1.42-2.34l-.27.21c-.24-.52-.48-1-.74-1.53.46.13.7.61,1.2.79.95.37.45.26.73,1.16a2.49,2.49,0,0,0,.46.64c.17.24,0,.63.07.87.41.83.85.29.78-.37.66.31.24,1.51.88,1.67,1.05.28,1.23.35,2.15-.25C442.82,236,442.1,237.35,441.7,237.73Z" style="fill: rgb(87, 144, 184); transform-origin: 438.976px 236.52px;" id="ellkycsze5ow" class="animable"></path><path d="M381.07,196.46c-.58.53-1.82.18-2.52.2-.33,0-.57.51-1.08.42-.24,0-.3.2-.5.24s-.33-.33-.75,0c-.24-.26-1.82-.09-1.22-.75s1.62.36,2.16,0c.25-.15.53.28.75.09.4-.37.46-.4,1-.37C379.71,196.42,380.23,196.14,381.07,196.46Z" style="fill: rgb(87, 144, 184); transform-origin: 377.968px 196.802px;" id="el90rzlyujjhp" class="animable"></path><path d="M118.74,79.21c-.14,0-.31,0-.46,0,.33.33.24.72.22,1.16.44-.42.85-.79,1.49-.63-.38.55.21.46.21.89,0,.25-1,.55-1.2.57-.94.11-1.82-.43-2.76-.43.11-.07.2-.18.31-.25l-1.67-.34c.07-.14.05-.35.13-.49-.48-.15-.5.27-.83.55a1.84,1.84,0,0,1-1.08.46c-.8.13-1.09.7-1.9.75-1.16.1-2.34.17-3.49.28-1,0-1.2-.48-1.09-1.53-1.65-.07-3.66.26-4.25-1.82a11.64,11.64,0,0,1,3.4-.66,15.66,15.66,0,0,0,2,.28c.29,0,1.69-.26.83-.48a12.69,12.69,0,0,0-3.55-.59c-.87,0-1.73,0-2.6,0-.66,0-.81-.3-1.32-.8.86-.38,1.71-.75,2.56-1.14l-2.45.08a4.07,4.07,0,0,1,.18-.44h-1.16c-.12-.78.63-1.18,1.09-1.6-.18,0-.35-.22-.51-.26a11.05,11.05,0,0,1,3.45-1.88c.67-.24.92-.48,1.51-.14.81.47.22,1.08-.33,1.54.35,0,.68,0,1-.09s.42-.72.7-.79,1.64.75,2.06,1c-.17.2-.31.43-.48.65.63,0,.66,0,1-.54.13-.22,1,.13,1.2.21l-1.08-1.15c.62-.11,2.09-.05,2.39.81.2.63.42,1.25.64,1.88s.44.22.92,0c-.26-.68-.5-1.36-.74-2-.11-.3-.22-.61-.31-.91s.41-.42.13-.86c.24.11,1,.7,1.18.46.33-.5.71.13,1.16.39,1,.57,1.32,2.26,1.8,3.38.18.48-.22,1-.08,1.36s1.29.81,1.61,1a4.12,4.12,0,0,0,2.52.91c0,.49.14,2-.58.84,0,.15-.18.26-.22.41-.49-.43-1-.68-1.15.27A1.59,1.59,0,0,1,118.74,79.21Z" style="fill: rgb(87, 144, 184); transform-origin: 110.674px 76.115px;" id="elqoyfqhyx83" class="animable"></path><path d="M365.22,184.26c-.65-.62-.46-.61,0-1.4.37-.6.92-.6,1.56-.82s.79-.76,1.13-1.27c.49-.76.62-.76,1.47-1,.66-.16.25-.57.71-1.1.26-.3,1.05-1.55,1.42-1.6s1.2.81,1.42,1.1.38.66.64.72.55,0,.68.4l-1.19.33c.16.24.33.46.47.69-.29.07-1.34,0-1.36.57a2.29,2.29,0,0,0,.08.73c.09.39.33.55.55,1.18.05.16-.19.48-.11.62s.53.48.72.67c.77.69.38.82-.45.64-.4-.09-.73.74-.7,1.2.06,1,.08,1-.64,1.61-.53.46-.72.48-.72,1.2s0,1.51-.05,2.28c-.37,0-.39-.28-.28-.63-.53.26-1.06.54-1.6.8-.05-.26-.09-.83-.35-.92s-.59.05-.75,0c-1-.61-1.09-.39-2.1.18-.05-.29-.09-.6-.15-.9-.33.15-1.63.68-1.69,0s0-1.89-.59-2.41c-.09.35,0,.18-.4.37.11-.52-.07-.24-.15-.53a.35.35,0,0,1,0-.13c-.06-.19-.12-.35-.17-.52s.22-.27.18-.42-.4-.48-.36-.76c.05-.46.11-.92.16-1.36l.76-.46C363.43,184.15,364.63,184.11,365.22,184.26Z" style="fill: rgb(87, 144, 184); transform-origin: 368.343px 184.124px;" id="ellcmdsrqcaw" class="animable"></path><path d="M374.27,187.55c.2-.6.92-.92.44-1.61a3.21,3.21,0,0,1,1.21-1.59c.52-.33,1.49.24,2,.43s.37-.13.72-.1.73.32,1,.15c.48-.31.9-1.14,1.45-1.16-.4,1.12-1.14,2.56-2.41,1.81-.53-.3-1.28-.06-1.86,0s-1-.48-1.36,0c-.77.94.28,2.87,1.29,1.78.41-.46.18,0,.59-.07s.37-.28.81-.3,1.12-.55.88.37c-.94-.6-1.3,1.49-2.35,1.11.29.33.53.31.77.75.13.28.28.53.42.81s-.29.46-.24.61c.24.55,1,.2.72.92,0-.17-1,.64-.84.64-.45.09-.81,0-.65-.61s-.5-.46-.68-1c-.05-.24.35-1.19-.16-1.14-.94.11-.3.42-.35.92s.05,1.05,0,1.47c0,.22-.24.41-.26.63s.26.62.16.75c-.14.31-1.06.19-1.23-.07a6.71,6.71,0,0,1,.3-1.95c.11-.85-.5-.37-.74-.72-.44-.64-.26-.73.09-1.45C374.23,188.36,374.1,188,374.27,187.55Z" style="fill: rgb(87, 144, 184); transform-origin: 377.365px 188.487px;" id="el8dzh8g18idc" class="animable"></path><path d="M294.62,202.64c.28,1.32.7,2.35.19,3.6l-.59-.59a8.83,8.83,0,0,1-.44,3.92c-.7,2.28-1.38,4.58-2.06,6.88-.21.63-.39,1.27-.57,1.9,0,.07-1.51.51-1.71.62s-1.7-.39-1.73-.7a22.67,22.67,0,0,0-.46-2.46,3.82,3.82,0,0,1-.15-2.43c.24-.76,1.12-1.53,1.2-2.3a9.41,9.41,0,0,0-.57-2.58c-.1-.4.27-1.91.6-2a7.69,7.69,0,0,0,2.3-.85c.74-.37,1-1,1.57-1.64.71-.81,1-.81,1.06-2,.08-1.43,1,.06,1.33.46Z" style="fill: rgb(87, 144, 184); transform-origin: 291.009px 210.194px;" id="elgin4rx09iru" class="animable"></path><path d="M123.65,62.18c.24-.15.74.19,1,.28a2.11,2.11,0,0,1,.51.88c0,.3-.14.64-.13,1s.32.49.21.93c-.11-.11-.28-.14-.39-.25a.72.72,0,0,1-.29.66c.2.09.35.31.55.4-.54.52-1.36.24-2,.21-.2,0-.31.35-.55.27-.4-.13-.81-.09-.86-.61.18,0,.4-.11.58-.07a2.28,2.28,0,0,0-.92-.24.81.81,0,0,1,.8-.33l-.19-.16a.59.59,0,0,0,.63-.39,23.11,23.11,0,0,0-2.34.33c-.5.11-2,.06-.92-.66h-1a1,1,0,0,1,.75-.35c.48-.09,1.4.37,1.55-.15-.57.17-.69-.39-.15-.59-.22,0-.46,0-.7,0-.11-1.6,2.32.72,2.65.91-.26-.34-.5-.67-.74-1,.17,0,.35-.05.54,0-.11-.44-1.7-.51-.74-.88S123,62.62,123.65,62.18Z" style="fill: rgb(87, 144, 184); transform-origin: 121.802px 64.3571px;" id="elihez0nb2iw" class="animable"></path><path d="M407.06,194.43l-1,.11c.1.26.19.81.39,1s.7.33.83.59c.49,1,.46,1.3,1.51,1.34-.3.68.33.61.77.7-.44.39.5,1,.79,1.34-.41.13-1.16-.44-1.64-.53-.7-.13-1.38-.06-1.89-.61s-1.31-1.36-2-2.06c-.33-.35-1.71-.27-2.17-.33s-.57,1.23-1,1.51a3.61,3.61,0,0,1-2.39.2c-.51,0-.83-1.29-1.25-1.25l-2.45.26c.15-1.22.24-1.09,1.31-1.4q-.44-1.08-.9-2.19c-.18-.42-1.14-.61-1.51-.75l-2.72-1.16c-.77-.33-.76-.3-.92-1.22l-1,1.16c-.37-.6-.71-1.21-1.08-1.84a3.51,3.51,0,0,1,2.19-.09,1.37,1.37,0,0,0,.05-.53,3.83,3.83,0,0,1-2.1-.11c-.23-.13,0-.72-.23-.76l-1.09-.16a2.23,2.23,0,0,1,2.69-1.09c.66.17.86,0,1,.78a6.56,6.56,0,0,0,.5,1.87c.22.59.49.63,1.05.89.2.09.9-1.05,1-1.26A2.19,2.19,0,0,1,396,188c1.33.49,2.63,1,4,1.51a14.54,14.54,0,0,1,2.59,1c.5.31,1,.64,1.53,1s.27,1,.64,1.38C405.28,193.42,407.19,193,407.06,194.43Z" style="fill: rgb(87, 144, 184); transform-origin: 398.955px 192.987px;" id="elxkwmb81js5" class="animable"></path><path d="M399.65,127.42a1.2,1.2,0,0,0,.13-.91c0-.37.57-.7.44-1s-.37-2.36.31-1.44a5.21,5.21,0,0,0,1.7,1.84c1.08.55,1.12.79,2-.11.19.53-.77,1.6.5,1.56A1.88,1.88,0,0,1,403,128a1.68,1.68,0,0,0-.87.48,6.44,6.44,0,0,0-.31,1c-.37.18-1.29-.61-1.58-.88s-.7.12-.9.22-.59-.28-1-.15c-.11.73.64.46.86.86s-.2.32-.36.26-.48.53-.63.48a4.76,4.76,0,0,1-.51-1.53c.12-.46.18-.46.58-.66.21-.11.19-.66.24-.9Z" style="fill: rgb(87, 144, 184); transform-origin: 401.215px 127.054px;" id="elyb5wzxz6zkg" class="animable"></path><path d="M395.42,66.71c-.31-.39-1-.87-.83-1.4.26-1,.67-1.16,1.4-1.77s2.5.94,3.33,1.29c-.11-.64-.39-1,.2-1.31.33-.14.85.23,1.16.34,1.18.44,2.36.88,3.51,1.34a3.3,3.3,0,0,1-1,.86c-.52.32-.72.11-1.27-.13.14.26.31.52.46.78L401,67c-.28.06-.57-.81-.83-.71-.86.35-1.76,1.14-2.37.18-.35.81-.31.85-1.12.92C396.25,67.41,395.83,67,395.42,66.71Z" style="fill: rgb(87, 144, 184); transform-origin: 399.377px 65.395px;" id="elw771mh8r13h" class="animable"></path><path d="M116.74,55.69c-.35,0-.68,0-1,0,.35-1,.88-.83,1.87-1s1.27.46,1.6,1.21c.44-.24,2-.88,1.8.41.65-.11.8-.2,1.31.22.29.24.26.22.13.61s.35.57.51.75c1.2,1.36-1.21,1.42-1.47,1s-.31-.85-.86-.9-1.29,0-1.68-.45-2.29,1.29-2.5-.46c.63-.4,2,.39,1.92-.62l-.91-.17c.12-.07.19-.22.32-.29-.54-.53-.74.35-1.33.29A4.68,4.68,0,0,1,116.74,55.69Z" style="fill: rgb(87, 144, 184); transform-origin: 119.516px 56.8909px;" id="el3ex6w22k94n" class="animable"></path><path d="M296.52,73.79c0-.7.81-.46,1.06-1,.35-.7-.31-.73.43-1.27.18-.14,1.34-.77,1.29-1-.13-.62-.37-.93,0-1.39.55-.59,1.07-1.18,1.6-1.77a32.9,32.9,0,0,1,2.43-2.3,11.5,11.5,0,0,1,3.07-1.27,7.84,7.84,0,0,1,3.24-.57,9.13,9.13,0,0,0,3.71-1.49c.52-.4,3.32-1,3.17.44-.11,1.22-2.82,1.7-3.5,1.92-1.36.47-2.72.86-4.08,1.28a11.71,11.71,0,0,0-2.83,1.81,6.91,6.91,0,0,0-1.82,1.17c-.43.56-.85,1.16-1.31,1.7-.77.9-2.06,2.06-2,3.42,0,1.73,1.07,2.46,2.3,3.31-.79.64-2.63.09-3.52,0a3.87,3.87,0,0,1-2.57-1.35C296.55,74.76,296.44,74.75,296.52,73.79Z" style="fill: rgb(87, 144, 184); transform-origin: 306.512px 69.1721px;" id="elj20r9tgais" class="animable"></path><path d="M229.91,104.73l-.12-.13a1.1,1.1,0,0,0,.14-.09C230,104.62,229.91,104.67,229.91,104.73Z" style="fill: rgb(87, 144, 184); transform-origin: 229.873px 104.62px;" id="el4x0zihvie0j" class="animable"></path><path d="M437.1,240.8c.13.46.28.92.41,1.38-.48.63-1,1.24-1.42,1.86s-.42.68-.07,1.4a.61.61,0,0,1-.54-.48c-.92.68-1.34.87-1.63,2a10.86,10.86,0,0,1-1.48,2.47c-.4.66-1.8.18-2.19-.26s-2.2-.07-1.54-1,1.29-1.74,1.93-2.61c.2-.27.88-.42,1.18-.55a4.79,4.79,0,0,0,1.05-.83,7,7,0,0,0,1.05-.92c.22-.36.18-1,.42-1.3.35-.5.55-.19.7-.87s.35-.64.88-.93a2.71,2.71,0,0,1,.37,1.3C436.51,241.3,436.81,241.06,437.1,240.8Z" style="fill: rgb(87, 144, 184); transform-origin: 433.003px 244.957px;" id="el0667r1f2kh2f" class="animable"></path><path d="M368.88,197.1l-1.34-.59a5.79,5.79,0,0,1-1.77-.16c-.13,0-.18.2-.35.18s-.48-.07-.74-.09a4.81,4.81,0,0,1-.9-.31,6.06,6.06,0,0,0-1.08-.39c-.35,0-.76.24-1.11.16-.68-.12-1.34-.55-2.06-.68a2.21,2.21,0,0,1,.08-.35c-.61-.14-1.57-.2-.85-1,.24-.29.26-.44.61-.36s.68.35.81-.08c.26.17,1.43.44,1.49.57.48.81,1.1.63,2,.72.22,0,.51.18.6-.09.13-.44.32-.66.65-.24a2,2,0,0,0,1.71.26,1,1,0,0,0,1.19,1.06C369,195.41,368.35,196.42,368.88,197.1Z" style="fill: rgb(87, 144, 184); transform-origin: 363.692px 195.265px;" id="el9q0hi6ljviq" class="animable"></path><path d="M154.1,76.49c.25.7,1.08.15,1.32-.4s2.72.92,3.2,1.16c-.2.68-1.12.7-1.67.86.44.07.92,0,.75.61.44-.22,1.09-.35,1.18-1,.42.28,1.08.57,1.06,1.2a2.16,2.16,0,0,0-1.69.44,2.2,2.2,0,0,0,1.18.31c.75-.14.7-.16,1,.63l-1.47-.3c.06.34.11.67.17,1l-1,.11c1.23.57,2.46,1.05,3.73,1.52a2.66,2.66,0,0,1,1.27.92c.54.59.89.57,1.66.68-.17.26-.33.52-.5.76a6.08,6.08,0,0,1,1.9,0c.77.35.47.85.38,1.68-.38-.08-1-.34-1.25,0a9.23,9.23,0,0,1,.9.42c-.9.46-1.25.92-2.09.33a4.66,4.66,0,0,1,0,2,5.4,5.4,0,0,1-2.24-1.78c.46-.2,1.14-.28.94-1-.3.09-.92.47-1.2.42s-.77-.83-1.12-1-.74-.28-1,.11c-.39.59.29.53.33,1.18-.33-.06-.65-.1-1-.13.11.33.2.64.31,1,.48-.18.61-.42.8.13s.29.94.44,1.42c.14-.74.51-.41.95-.2s.48.38.61,1,.59.37.85.78a5.71,5.71,0,0,1,.18,1.52c-.18-.25-.39-.51-.57-.77-.35.63.53.79.26,1.42-.13-.06-.3-.06-.42-.13l.27.72c-.24.09-.9-.78-1.29-1l-2.11-1.32c.09.18.09.42.18.59-.4-.19-.81-.37-1.23-.55.24.4.46.82.7,1.23s.81.24,1.08.42l1.29.92c.42.3.26.5.19,1.07q-1.74-.47-3.48-.9c-.42-.11-.39-.63-.64-.7-.59-.17-1.18-.31-1.77-.46.07-.09.13-.2.2-.3a2.47,2.47,0,0,1-1.47-.55l.92-.48c-.53-.29-1.14-.24-1.47-.73-.61-.92-.59-1.49-1.51-.88,0-.41-.22-.61-.59-.56,0,.17-.09.37-.07.56-.54-.13-1.11-.46-1.53-.06s-1.16.28-1.75.31c-.38,0-1-.71-.79-1.08s1-.63.94-1.22a7.36,7.36,0,0,0,2.67.21c.22-.08,1.51-.26,1.58-.46.17-.45-.74-.91-1-1.07.72-.72,1.42-1.44,2.14-2.15.2-.21.51-.33.37-.61-.3-.55-.61-1.1-.91-1.66-.46-.84-1.41-.62-1.84-1.38-.35-.58-.29-.53-.88-.29l-1.32.5c0-1.11.2-1,1.16-1.24-.52-.42-1.66-1.91-2.28-1.23-.06-.29-.12-.59-.19-.88s-.51,0-.7-.06c-.53-.25-.46-1.34-1.19-.64.59.17.66.46.92,1a6.41,6.41,0,0,1-3.65-.39l1.05,1c-.46.16-.59-.42-1-.48-.15,0-.26.44-.44.37l-.85-.33a9.86,9.86,0,0,0-2.83-.15,3.09,3.09,0,0,1-1.29-.35c-.51-.48.17-.73-.77-.64-.42,0-.66.44-1.18.14a3.89,3.89,0,0,1-1.69-1.6c.9.1,1.8.17,2.71.24-.91-1-1.72-.82-3-1a7.52,7.52,0,0,1-.29-1.55c-.07-.44.48-1.34.62-1.75a3.45,3.45,0,0,1,2-2.11,5.3,5.3,0,0,1,3.26-.41c-.07.35-.17.69-.26,1a13,13,0,0,0,2.65-.91,4.05,4.05,0,0,1,1.29.06c.48,0,.37.68.64,1s.48.35.74.86c.35.72.25.74-.13,1.46s.18.59.53.24c.63-.63.57-.59,1.31-.15.2.13.81-.64,1-.81s1-.2,1.4-.24a3.75,3.75,0,0,1,2.39.94c.42.42,1.49,2.1,1.93,2,.74-.28,2.08-.42,2.39.62C155.13,75.7,154,76.2,154.1,76.49Z" style="fill: rgb(87, 144, 184); transform-origin: 150.159px 82.4123px;" id="el58nm1fhna7v" class="animable"></path><path d="M96.43,64.06c-.4-.5-.39-.81-.13-1a.79.79,0,0,1,.33-.17l.21-.06a1.17,1.17,0,0,1,.22,0l.22,0c.55-.07,1.38-1.1,1.8-1.47a2.88,2.88,0,0,1,1.75-1,2.61,2.61,0,0,1,1-.11c.4.16.75.4,1.12.07-.2-.07-.24-.18-.37-.26l.31-.09a.73.73,0,0,1,.28,0v0a2.59,2.59,0,0,1,1.32.53c-.51.19-1.61.74-.38,1a1.44,1.44,0,0,0-.46.05,1,1,0,0,0-.15.08.56.56,0,0,1,.3.29c.09.22-.06.48-.28.68a2.44,2.44,0,0,1-.94.63c-.75.2-1.62-.66-.73-1.23-.17-.15-.69-.21-.69.12,0,.67-.34.34-.73.58a.4.4,0,0,1,.22.68c-.44.51-.64-.41-.88-.3-.43.2.25.72,0,1s-.7.3-1,.41c.1-.61-.35-1-.7-.72a.35.35,0,0,0,0,.21c0,.12,0,.23-.07.29a.4.4,0,0,1-.32,0Z" style="fill: rgb(87, 144, 184); transform-origin: 100.303px 62.2232px;" id="elhcvp85yh4n" class="animable"></path><path d="M352,57.71a14.05,14.05,0,0,1,1.65-2.41,1.83,1.83,0,0,1,2.26-.42c-.18.17-.38.33-.57.52.3,0,1.16-.26,1.35,0,.46.53.57.79,1.23.86.29,0,.85.83.59,1a2.19,2.19,0,0,1-1.12.55l-2,.37c-.35.06-.75-.42-1-.35-.75.28-2.34,1.36-3,.52C351.55,58.14,351.75,57.93,352,57.71Z" style="fill: rgb(87, 144, 184); transform-origin: 354.984px 56.662px;" id="ely2awuu37tz" class="animable"></path><path d="M230.59,106.25a3.23,3.23,0,0,1-.27.52C230.12,106.38,230.36,106.18,230.59,106.25Z" style="fill: rgb(87, 144, 184); transform-origin: 230.418px 106.503px;" id="el35dy2dgqtoy" class="animable"></path><path d="M389.52,142.82c-.33-1.12,0-.9.42-1.82.29.22,2.17-1,2.1.4,0,.21-.46.61-.57.78s-.41-.35-.56-.28C390.36,142.14,390.25,143.3,389.52,142.82Z" style="fill: rgb(87, 144, 184); transform-origin: 390.714px 141.826px;" id="elcdmhq9i5q4f" class="animable"></path><path d="M138,90.86c.09-.22-.15-.61-.11-.85s.11-.7.2-1c.22-.83.2-1.47.94-1.8s1,.85.13,1a1.09,1.09,0,0,0,.24.48c.42-.57.55-.4.93,0,.26.27.76.16,1.07.38s2.52,1.33,1.71,2.16a1.77,1.77,0,0,1,1.84.47l-1,.65c-.67-.2-2.5-.41-2.36-1.49-.66.26-.59.79-1.27,1-.4.14-.77.79-1.21,1.12s-.41-1.2-.57-1.31-1.49.3-1.71.32C137.08,91.72,137.93,91.1,138,90.86Z" style="fill: rgb(87, 144, 184); transform-origin: 140.89px 90.0893px;" id="eltd4jcs9i6lb" class="animable"></path><path d="M128,52.84c.19.07.39.09.57.15-.12-.08-.22-.23-.33-.32.17-.05.32-.22.48-.26-.44-.31-1,.24-1.49,0a1.65,1.65,0,0,1,.26-.14A6.1,6.1,0,0,1,126.1,52c.31-.13.63-.24.94-.35-.63-.64,1.38-.72,1.78-.81-.33-.29-1-.22-1.41-.37.53-1.38,2.28-.12,2.77-1-.48-.28-1.06-.09-1.6-.28.44-.64,1.38-.31,2-.14,1,.24,1.36.88,2.06,1.69a1.52,1.52,0,0,0,1.64.59c.59-.17.24.51.37.73a1.07,1.07,0,0,0,1,.5c-.17-.28-.32-.53-.46-.81.7-.61,1.8.24,1,.92,1.27.15,1,.61.48,1.62.46-.18,1.56-.79,1.63.2,0-.18.22-.33.28-.53a4.18,4.18,0,0,1,1,1.05c-.59.18-2,.95-2.38.64.26.59-.31.79-.68,1.1a1.8,1.8,0,0,1-.24-1.17c-1.36.38.87,2.33-1.17,1.25.36.53.2.81,0,1.36l-1.46-1.42.72,1.47a2,2,0,0,0-1.45-.68.77.77,0,0,1,.51.54c-1,0-2.44.14-3.09-.89l1.48-.16c-.72-.17-1.92,0-2.34-.59l.77-.06a4.26,4.26,0,0,1-1.4-.53c1.48-.61,2.89-.48,4.42-.77a5.47,5.47,0,0,1-2.45-.11l1.62-.2c-.46-.43-1.54-.08-2.21-.35.11.66-.27.16-.38.22-.35.16-.48.51-.89.29l.06-.29c-.37-.15-.55.09-.85.31s-.38-.35-.71-.29-.48-.43-.11-.48.9,0,1.21-.5c-.88.35-2.35.35-2.52-1Z" style="fill: rgb(87, 144, 184); transform-origin: 132.81px 53.5261px;" id="el7fycf8ask1b" class="animable"></path><path d="M381.5,174.48c-.06-.34-.11-.67-.17-1a1,1,0,0,1,.68.7c.31-.13.41.3.35.59-.07.09-.16.17-.24.26.09,0,.15.11.31.11a1.19,1.19,0,0,1,0,.42c.51,0,.07,1.36,0,1.73a1.07,1.07,0,0,1-.19-.13c0,.28,0,.53,0,.81-.3-.46-.09-.92-.41-1.36-.66.48-.31.85-.18,1.42.15.75-.74,1.08-.46.22H381c-.19.64-1.2-.11-1.34-.52-.24-.62.58-1.82-.67-1.65,0,.16,0,.36,0,.53-.28-.18-.28-.07-.31-.44-.17.2-.2.11-.32.4-.22-1.21-.69.46-.95.66-.57-.79.4-1.41.95-1.58.3-.09.1-.84.65-.81s.53.61.26.94c.47-.18.71-1.05,1.21-.66,0-.46.09-.74.46-.5C381.18,174.37,381.11,174.42,381.5,174.48Z" style="fill: rgb(87, 144, 184); transform-origin: 379.955px 176.12px;" id="elg2l2nha3jzq" class="animable"></path><path d="M412.84,218.49a28.29,28.29,0,0,1,.72,4.89c-.06,1.64-.87,3.55-1.25,5.15-.35,1.33-1.82,2.32-2.06,3.68-.3,1.57-.13,4-1.95,4.11a2.13,2.13,0,0,0-2,.92c-.37.34-1.32.69-1.69.25-.75-.92-.68-1.27-1.58-.49s-.94.57-1.95.4c-1.58-.26-2.91-.75-3.29-2.61-.13-.53-.56-1.79-1.16-1.79s-.48-1.61-.56-2.28c-.49,1.05-.46,1.66-1.54,1.42.66-1.08,1.51-2.12,1.08-3.4a17.53,17.53,0,0,1-2.37,3.18A18.35,18.35,0,0,1,392,230c-.59-1.05-.65-1.25-1.69-1.64a20.3,20.3,0,0,0-4.88-1c-.5,0-1.34.74-1.78,1s-1.4-.14-2,.15-1.65.52-1.93,1.12c-.09.19-.35,1-.51,1-.55,0-1.11,0-1.66.06-.72,0-1.45.12-2.17.2-1,.11-1.23.38-2,1.16-.56.53-1.4.29-2.1.29s-1.32-.79-1.89-1.21.71-1.31.79-1.51c.22-.57-.32-2.23-.41-2.87a16.56,16.56,0,0,0-1.43-4.69c-.3-.63-.72-1.11-.5-1.79a2.16,2.16,0,0,0,0-2c-.61-1.53-.22-2.81.38-4.32.17.37.32.75.46,1.14a3.5,3.5,0,0,1,1.55-2.06,5.22,5.22,0,0,1,2-1.1c1.23-.28,2.48-.58,3.72-.85.93-.24.93-1,1.3-2,.72-1.89,2.67-3,4.12-4.19.26-.22,1.36-1.47,1.68-1.29.9.46,1.78.94,2.68,1.42a8,8,0,0,1,1.09-3c.66-1,1.6-.42,2.63-.26,0-.44-.08-.88-.1-1.3a20.28,20.28,0,0,1,2.8.2,2.73,2.73,0,0,1,2.3,1.05,4.51,4.51,0,0,0-1.23,2c-.26,1.09-.65,1.4.25,1.92l2.86,1.71c.53.33,1,1.21,1.49,1.4,1.43.53,2-2.8,2-3.85a9.77,9.77,0,0,1,0-2.7c.22-.77.3-2.34,1.16-2.56a20.33,20.33,0,0,1,1.49,4.89,1,1,0,0,1,1.56.78c.08,1.27,0,1.63.8,2.55.57.65.33,1.62.33,2.49,0,.33,2.07,1.27,2.39,1.43.75.44.73,1,1,1.86.15.5.31,1,.46,1.51s.66-.33.79-.28c1.05.35.13,1.18.81,1.79Z" style="fill: rgb(87, 144, 184); transform-origin: 390.547px 218.663px;" id="el37i3anvnoc1" class="animable"></path><path d="M387.62,140.47a2.51,2.51,0,0,0,2.1-1.29c.48-.68,1.91-.5,2.67-.59.4,0,.12.51.79.22.46-.2.07-.51.33-.86s.77-.76.79-1.13c0-.7.24-.62.84-.86-.12.13-.62.9-.2.88a3.35,3.35,0,0,0,1.23-.46,3.12,3.12,0,0,0,1.42-1.86c.19-.57.37-1.12.53-1.69.08-.2-.44-.4-.31-.83s1-2.31,1.33-.93c-.17-.65.18-1.13.79-.79-.08.36-.26.71-.09,1s.58.87.57,1.24c0,.53.12,1.06-.3,1.34s-.26.61-.26,1.1c-.7-.35-.6.46-.59.94,0,.77-.23.79-.36,1.42-.08.33.09,1.47,0,1.51-.49.25-.58.73-1.15.93.05-.25.11-.53.18-.81a6.71,6.71,0,0,0-1,1.22c-.11-.24-.24-.48-.37-.72-.51.74-1.61,1.14-2.17.26-.47.33-.35.72.06,1.07-.68-.13-1,.73-1.34,1.21-.63-.57-1.16-1.07-.3-1.8-.57-.06-1.41-.35-1.8.13-.07.11-.72.23-.92.34-.37.24-.59.45-.9-.07-.3,1.07-.94.24-1.53.77.35.52.59,0,.85.46.09.15.49.7.38.92a5.49,5.49,0,0,1-1.39,2.38c-.92.66-.85-1.07-.52-1.6.17-.26.52-1.07-.13-1.16s0,.77-.7.7c0-.32-.07-.61-.11-.91C386.68,141.81,388,141.4,387.62,140.47Z" style="fill: rgb(87, 144, 184); transform-origin: 393.233px 137.718px;" id="elt8lkcisuzgp" class="animable"></path><path d="M94.39,119.2a14.31,14.31,0,0,1-4.82-3.75c.88-.28,1.16.13,2,.41,1.09.36,1.27.11,1.86,1.21.2.37.26.61.61.72s.7.16.85.4C95.47,119.22,95.6,119.64,94.39,119.2Z" style="fill: rgb(87, 144, 184); transform-origin: 92.4443px 117.365px;" id="elhkc5fo59wld" class="animable"></path><path d="M217.9,91.61c-.33.06-.66.09-1,.15s-.28.28-.55.42a2.17,2.17,0,0,1-1.64.11,4,4,0,0,1-1-.22c-.15-.11-.32-.62-.52-.59l-2.13.28c-.28-.75.81-.55,1.05-1.2a1.53,1.53,0,0,1-.3,0l.06-.28c-.37.06-.52-.18-.26-.48-.5,0-2,.33-2.1-.35.81,0,1.71-.35,2.61-.33,0-.07,0-.16,0-.24a1,1,0,0,1-.91-.07c.32-.17.63-.31.94-.46-.38-.09-1.12-.44-1.49-.31-.75.31-.95.46-1.71.14.28-.14.2-.23.54-.2,0-.11,0-.24,0-.35.21.13.57.32.72.08s-.66-.26-.24-.78,1.51.81,1.4-.33c-.39,0-.7,0-.81-.4.87,0,.83.13,1.49.7.13.11.64.22.66.46a.39.39,0,0,1-.49.4,11.2,11.2,0,0,0,.68,1.1,5.86,5.86,0,0,1,.46-1.06c.24-.41.73,0,.35-.87.49-.09.77.48,1.1.81-.15-.42,0-.94.5-.92s.68.43,1,.92c-.06-.33-.09-.66-.15-1,.88.4,1.12-.06,2,0-.53-1.38,2.51-.13,1.88.92.52-.21.85.12,1.29.36.22.15-.11.74.31,1-.35.35-.62.87-1.14.57,0,.72-.37,1.22-1,1C219.14,90.56,218.29,91.37,217.9,91.61Z" style="fill: rgb(87, 144, 184); transform-origin: 215.295px 89.2657px;" id="el17l1gdxjuux" class="animable"></path></g><g id="freepik--Shadow--inject-530" class="animable" style="transform-origin: 197.805px 458.06px;"><path d="M355,458.06c0,3.64-70.37,6.59-157.17,6.59S40.61,461.7,40.61,458.06s70.36-6.59,157.17-6.59S355,454.42,355,458.06Z" style="fill: rgb(235, 235, 235); transform-origin: 197.805px 458.06px;" id="elix0i8wom6w" class="animable"></path></g><g id="freepik--Chart--inject-530" class="animable animator-active" style="transform-origin: 250.05px 269.555px;"><g id="elecwajlfxful"><rect x="40.7" y="126.45" width="29.22" height="307.94" style="fill: rgb(87, 144, 184); transform-origin: 55.31px 280.42px; transform: rotate(180deg);" class="animable"></rect></g><g id="el6wg6j22if19"><rect x="40.7" y="126.45" width="29.22" height="307.94" style="fill: rgb(255, 255, 255); opacity: 0.7; transform-origin: 55.31px 280.42px; transform: rotate(180deg);" class="animable"></rect></g><g id="el2ivghkutv0j"><rect x="40.7" y="126.45" width="8.66" height="307.94" style="fill: rgb(255, 255, 255); opacity: 0.5; transform-origin: 45.03px 280.42px; transform: rotate(180deg);" class="animable"></rect></g><g id="el94egpjdripl"><rect x="89.38" y="104.72" width="29.22" height="329.67" style="fill: rgb(87, 144, 184); transform-origin: 103.99px 269.555px; transform: rotate(180deg);" class="animable"></rect></g><g id="el9uetgz93mzc"><rect x="89.38" y="104.72" width="29.22" height="329.67" style="fill: rgb(255, 255, 255); opacity: 0.7; transform-origin: 103.99px 269.555px; transform: rotate(180deg);" class="animable"></rect></g><g id="eltr90n6h93xl"><rect x="89.38" y="104.72" width="8.66" height="329.67" style="fill: rgb(255, 255, 255); opacity: 0.5; transform-origin: 93.71px 269.555px; transform: rotate(180deg);" class="animable"></rect></g><g id="elt7q87mngsm"><rect x="138.07" y="126.45" width="29.22" height="307.94" style="fill: rgb(87, 144, 184); transform-origin: 152.68px 280.42px; transform: rotate(180deg);" class="animable"></rect></g><g id="elr62rnliopc"><rect x="138.07" y="126.45" width="29.22" height="307.94" style="fill: rgb(255, 255, 255); opacity: 0.7; transform-origin: 152.68px 280.42px; transform: rotate(180deg);" class="animable"></rect></g><g id="el5abj8ako2ta"><rect x="138.07" y="126.45" width="8.66" height="307.94" style="fill: rgb(255, 255, 255); opacity: 0.5; transform-origin: 142.4px 280.42px; transform: rotate(180deg);" class="animable"></rect></g><g id="eltjr9rmgtyph"><rect x="186.75" y="183.2" width="29.22" height="251.19" style="fill: rgb(87, 144, 184); transform-origin: 201.36px 308.795px; transform: rotate(180deg);" class="animable"></rect></g><g id="eloooao4hgyjr"><rect x="186.75" y="183.2" width="29.22" height="251.19" style="fill: rgb(255, 255, 255); opacity: 0.7; transform-origin: 201.36px 308.795px; transform: rotate(180deg);" class="animable"></rect></g><g id="elftp05d1y62"><rect x="186.75" y="183.2" width="8.66" height="251.19" style="fill: rgb(255, 255, 255); opacity: 0.5; transform-origin: 191.08px 308.795px; transform: rotate(180deg);" class="animable"></rect></g><g id="el68d9r7x1h1b"><rect x="235.44" y="173.89" width="29.22" height="260.5" style="fill: rgb(87, 144, 184); transform-origin: 250.05px 304.14px; transform: rotate(180deg);" class="animable"></rect></g><g id="el4ba7fms3eyp"><rect x="235.44" y="173.89" width="29.22" height="260.5" style="fill: rgb(255, 255, 255); opacity: 0.7; transform-origin: 250.05px 304.14px; transform: rotate(180deg);" class="animable"></rect></g><g id="elggg596ioslb"><rect x="235.44" y="173.89" width="8.66" height="260.5" style="fill: rgb(255, 255, 255); opacity: 0.5; transform-origin: 239.77px 304.14px; transform: rotate(180deg);" class="animable"></rect></g><g id="el548uza9lbpc"><rect x="284.12" y="226.54" width="29.22" height="207.85" style="fill: rgb(87, 144, 184); transform-origin: 298.73px 330.465px; transform: rotate(180deg);" class="animable"></rect></g><g id="elw9hepplkaus"><rect x="284.12" y="226.54" width="29.22" height="207.85" style="fill: rgb(255, 255, 255); opacity: 0.7; transform-origin: 298.73px 330.465px; transform: rotate(180deg);" class="animable"></rect></g><g id="ely2pm5qc56ta"><rect x="284.12" y="226.54" width="8.66" height="207.85" style="fill: rgb(255, 255, 255); opacity: 0.5; transform-origin: 288.45px 330.465px; transform: rotate(180deg);" class="animable"></rect></g><g id="el1ddb6tf7apk"><rect x="332.81" y="240.78" width="29.22" height="193.61" style="fill: rgb(87, 144, 184); transform-origin: 347.42px 337.585px; transform: rotate(180deg);" class="animable"></rect></g><g id="eln7fa1ckkg0n"><rect x="332.81" y="240.78" width="29.22" height="193.61" style="fill: rgb(255, 255, 255); opacity: 0.7; transform-origin: 347.42px 337.585px; transform: rotate(180deg);" class="animable"></rect></g><g id="elz35z9t0fzh"><rect x="332.81" y="240.78" width="8.66" height="193.61" style="fill: rgb(255, 255, 255); opacity: 0.5; transform-origin: 337.14px 337.585px; transform: rotate(180deg);" class="animable"></rect></g><g id="el4gmi1jc6ryw"><rect x="381.49" y="227.01" width="29.22" height="207.38" style="fill: rgb(87, 144, 184); transform-origin: 396.1px 330.7px; transform: rotate(180deg);" class="animable"></rect></g><g id="elah4hl6mrf9s"><rect x="381.49" y="227.01" width="29.22" height="207.38" style="fill: rgb(255, 255, 255); opacity: 0.7; transform-origin: 396.1px 330.7px; transform: rotate(180deg);" class="animable"></rect></g><g id="el7zf87wipnv5"><rect x="381.49" y="227.01" width="8.66" height="207.38" style="fill: rgb(255, 255, 255); opacity: 0.5; transform-origin: 385.82px 330.7px; transform: rotate(180deg);" class="animable"></rect></g><g id="elt0yhsj53lt7"><rect x="430.18" y="297.03" width="29.22" height="137.36" style="fill: rgb(87, 144, 184); transform-origin: 444.79px 365.71px; transform: rotate(180deg);" class="animable"></rect></g><g id="el8v4gfh2ok3r"><rect x="430.18" y="297.03" width="29.22" height="137.36" style="fill: rgb(255, 255, 255); opacity: 0.7; transform-origin: 444.79px 365.71px; transform: rotate(180deg);" class="animable"></rect></g><g id="elqpdnxok4jo"><rect x="430.18" y="297.03" width="8.66" height="137.36" style="fill: rgb(255, 255, 255); opacity: 0.5; transform-origin: 434.51px 365.71px; transform: rotate(180deg);" class="animable"></rect></g></g><g id="freepik--Arrow--inject-530" class="animable" style="transform-origin: 251.55px 196.655px;"><polygon points="453.29 283.25 440.98 291.81 393 222.8 347.35 235.72 295.86 220.28 247.42 169.15 198.5 178.51 148.08 119.73 103.88 100.01 40.61 126.26 40.61 110.02 104.1 83.68 157.27 107.41 204.22 162.14 252.67 152.88 304 207.06 347.48 220.09 399.21 205.46 453.29 283.25" style="fill: rgb(69, 90, 100); transform-origin: 246.95px 187.745px;" id="el2xv29cw5wwy" class="animable"></polygon><polygon points="428.66 293.71 462.49 309.63 459.36 272.37 428.66 293.71" style="fill: rgb(69, 90, 100); transform-origin: 445.575px 291px;" id="el4jo3qx33ifw" class="animable"></polygon></g><g id="freepik--Floor--inject-530" class="animable" style="transform-origin: 249.995px 434.385px;"><polygon points="459.39 434.39 407.05 434.63 354.7 434.72 250 434.88 145.3 434.72 92.95 434.63 40.6 434.39 92.95 434.14 145.3 434.05 250 433.89 354.7 434.06 407.05 434.14 459.39 434.39" style="fill: rgb(38, 50, 56); transform-origin: 249.995px 434.385px;" id="elhanztwbtvci" class="animable"></polygon></g><g id="freepik--Bear--inject-530" class="animable" style="transform-origin: 208.481px 361.138px;"><path d="M300.74,291.39s14.32-11.58,13.41-14.73-9.6-13.6-16.27-11.86c-4.35,1.13-11.1,13.12-11.59,14s-1,8.4-1,8.4Z" style="fill: rgb(87, 144, 184); transform-origin: 299.741px 277.998px;" id="elvzuwukkqvq9" class="animable"></path><g id="elwlwlmoi7qpm"><g style="opacity: 0.1; transform-origin: 299.741px 277.998px;" class="animable"><path d="M300.74,291.39s14.32-11.58,13.41-14.73-9.6-13.6-16.27-11.86c-4.35,1.13-11.1,13.12-11.59,14s-1,8.4-1,8.4Z" id="ele7glhr64vqk" class="animable" style="transform-origin: 299.741px 277.998px;"></path></g></g><path d="M92.49,314.37s-14.15,11.8-17.06,10.31S64,312.61,67,306.41c2-4.05,15-8.35,16-8.65s8.44.67,8.44.67Z" style="fill: rgb(87, 144, 184); transform-origin: 79.4297px 311.256px;" id="elujacqc50sz9" class="animable"></path><g id="el86qkxk5ods4"><path d="M92.49,314.37s-14.15,11.8-17.06,10.3c-1.45-.74-4.3-3.72-6.41-7.3l16.16-19.6c2.54.18,6.2.65,6.2.65Z" style="opacity: 0.1; transform-origin: 80.755px 311.286px;" class="animable"></path></g><path d="M253.26,388.11s28.16,28.26,31.38,30.82,31,8,31.3,8.21,7.88,8.77,10.88,9.77,14.43,2,15.32.44-18.32-28.63-19.76-30.74-25.2-44.85-25.53-46.4.86-35,.86-35l-44.45,24.09Z" style="fill: rgb(87, 144, 184); transform-origin: 297.715px 381.685px;" id="el4cuva4o3c8u" class="animable"></path><g id="el2rn2hogggpo"><path d="M253.26,388.11s28.16,28.26,31.38,30.82,31,8,31.3,8.21,7.88,8.77,10.88,9.77,14.43,2,15.32.44-18.32-28.63-19.76-30.74-25.2-44.85-25.53-46.4.86-35,.86-35l-44.45,24.09Z" style="opacity: 0.1; transform-origin: 297.715px 381.685px;" class="animable"></path></g><g id="elwagn2qmvjds"><path d="M297.71,325.24s-.51,14.24-.77,24.56l-37.28,44.71-6.4-6.4V349.33Z" style="opacity: 0.1; transform-origin: 275.485px 359.875px;" class="animable"></path></g><path d="M335.6,434.61s-.05,0,0,0c.37.61.72,1.23,1,1.88a3,3,0,0,1,.41,1.85,0,0,0,0,0,.07,0,3.13,3.13,0,0,0,0-2A5.21,5.21,0,0,0,335.6,434.61Z" style="fill: rgb(38, 50, 56); transform-origin: 336.411px 436.475px;" id="el39t86nvt5ws" class="animable"></path><path d="M337.71,434.56s0,0,0,0a14.87,14.87,0,0,1,.9,1.86c.24.54.68,1.36.26,1.9-.07.1,0,.13.08,0,.53-.47.34-1.31.14-1.9A5.41,5.41,0,0,0,337.71,434.56Z" style="fill: rgb(38, 50, 56); transform-origin: 338.502px 436.483px;" id="elx6s8vhmykzf" class="animable"></path><path d="M114.69,393.29s39.85,61.16,41.4,61.16h39.85c2.56,0-.77-2.66-1.77-3.66s-12-4.89-13.43-6.55-2.78-22.09-4.33-27.09-4.56-23.86-4.56-23.86Z" style="fill: rgb(87, 144, 184); transform-origin: 155.789px 423.87px;" id="el078qs67wtwtk" class="animable"></path><g id="elcvtibkgemfg"><path d="M114.69,393.29s39.85,61.16,41.4,61.16h39.85c2.56,0-.77-2.66-1.77-3.66s-12-4.89-13.43-6.55-2.78-22.09-4.33-27.09-4.56-23.86-4.56-23.86Z" style="opacity: 0.1; transform-origin: 155.789px 423.87px;" class="animable"></path></g><g id="elqo5uvloqmps"><path d="M173.24,401.58l-48.11,7.65c-6-9.11-10.44-15.94-10.44-15.94h57.16S172.44,397,173.24,401.58Z" style="opacity: 0.1; transform-origin: 143.965px 401.26px;" class="animable"></path></g><path d="M190.66,451.37s0,0,0,0c.48.53.94,1.08,1.37,1.65a3,3,0,0,1,.75,1.75,0,0,0,0,0,.06,0,3.1,3.1,0,0,0-.4-1.91A5.37,5.37,0,0,0,190.66,451.37Z" style="fill: rgb(38, 50, 56); transform-origin: 191.76px 453.07px;" id="elbxfkuqjodfk" class="animable"></path><path d="M192.72,450.92a0,0,0,0,0,0,0,15.86,15.86,0,0,1,1.24,1.66c.32.49.91,1.21.6,1.83-.05.1,0,.12.08,0,.44-.56.1-1.35-.21-1.88A5.33,5.33,0,0,0,192.72,450.92Z" style="fill: rgb(38, 50, 56); transform-origin: 193.785px 452.706px;" id="eluur3uwc84vc" class="animable"></path><path d="M52.41,457.67h43s-2.88-4-4.44-4.89-8.1-3.1-8.1-3.1,8.88-11.55,10.43-15.77,15.54-33.52,16-34.19,26,4.44,34.63,4.67,32.19-6.66,33.52-7.33,19.49-9.25,19.49-9.25-.61,23-.17,25.68,18.65,44.18,22.42,44.18h40.59c1,0-3.16-4.51-4.18-5.22-1.5-1-14-3.66-15.09-5s-3.56-6.89-3.56-8.22,20-40.4,20-44.4,1.74-28.42,2.19-29.31c.18-.36,5-2.84,11.1-6.43.75-.44,8.8-6.63,9.54-7.11.58-.37-3.37,4.84-2.81,4.44,1.76-1.27,8.45-6.8,10.51-10.06l-4.59,7.29a25.82,25.82,0,0,0,6-5.39c2.58-3.29,6.25-9.08,6.3-9.14.67-.67,29.63-20.88,31.63-21.77s26.41-9.77,28-10.88,7.55-17.54,7.55-18.21-3.33-8.54-4.88-8.88-19.43.56-20.32,0-17-9.1-18.76-9.21-30.3,2.44-33.19,3.44-34.3,14.14-35,14-13.76-7-19.39-8.59-38.33,10.66-40.26,10.81-44.4-6.07-49.73-7.7-45.29,10.81-52.54,14.51S57.74,353,56.11,359.1s-2.22,87.62-2.66,88.65S49.9,457.67,52.41,457.67Z" style="fill: rgb(87, 144, 184); transform-origin: 206.906px 363.918px;" id="elsmkqvj572x" class="animable"></path><g id="elhyx1wliaw8s"><path d="M362.34,288.28c0,.66-6,17.09-7.55,18.2-.68.49-5.81,2.48-11.48,4.64-2.71-.25-15.37-6.09-16.2-8.08-1.06-2.5,10-23.64,10-23.64.89.55,18.76-.34,20.32,0S362.34,287.61,362.34,288.28Z" style="fill: rgb(255, 255, 255); opacity: 0.3; transform-origin: 344.689px 295.22px;" class="animable"></path></g><g id="elo9jcakjo13"><g style="opacity: 0.1; transform-origin: 149.79px 392.615px;" class="animable"><polygon points="109.25 399.72 91.02 395.51 107.46 403.34 109.25 399.72" id="ell8qsp9ocbs" class="animable" style="transform-origin: 100.135px 399.425px;"></polygon><polygon points="196.89 387.81 196.89 391.51 208.56 381.89 196.89 387.81" id="elnv463w8gygo" class="animable" style="transform-origin: 202.725px 386.7px;"></polygon></g></g><path d="M276.27,290.57s-17.53-5.63-17.83-8.88,4-16.16,10.88-16.95c4.47-.52,15.09,8.22,15.87,8.88s4,7.48,4,7.48Z" style="fill: rgb(87, 144, 184); transform-origin: 273.808px 277.644px;" id="elhb1ul3vsh5o" class="animable"></path><g id="elz9gftys24t"><path d="M284.08,284.82c.11-.95-3.22-7.35-3.88-8.09s-8.9-4.56-10.7-4.22-4,2.8-4.95,6a5.85,5.85,0,0,0-.12,2,6.11,6.11,0,0,1,.6-1.9c.92-1.61,4.4-3,5.77-3s6.95,3.51,7.29,3.92,3.05,7.45,3.05,7.45Z" style="opacity: 0.1; transform-origin: 274.238px 279.734px;" class="animable"></path></g><path d="M260.23,283.74a8,8,0,0,0,1.84,1.16c.64.35,1.3.65,2,.93,1.34.57,2.69,1.1,4.05,1.62l4.09,1.53c1.37.52,2.75,1,4.1,1.59-.72-.11-1.44-.28-2.16-.42s-1.43-.36-2.14-.54c-1.42-.37-2.82-.85-4.2-1.35a35.58,35.58,0,0,1-4-1.83A11,11,0,0,1,260.23,283.74Z" style="fill: rgb(38, 50, 56); transform-origin: 268.27px 287.155px;" id="ela6kvsqdj8y5" class="animable"></path><path d="M272.1,289.31c.68.58,1.32,1.12,2,1.6.34.25.7.48,1.06.72l1.1.7a4.92,4.92,0,0,1-2.49-.95,4.81,4.81,0,0,1-1-.92A3.64,3.64,0,0,1,272.1,289.31Z" style="fill: rgb(38, 50, 56); transform-origin: 274.18px 290.82px;" id="el4mqe8dw3z07" class="animable"></path><path d="M285.19,273.62a10.8,10.8,0,0,1,1.38,1.64,17.82,17.82,0,0,1,1.11,1.83,15.52,15.52,0,0,1,.86,2,12.76,12.76,0,0,1,.61,2.05c-.71-1.25-1.33-2.5-2-3.74Z" style="fill: rgb(38, 50, 56); transform-origin: 287.17px 277.38px;" id="el13g85ikb67y" class="animable"></path><path d="M290.2,280.43c-.45-.58-.85-1.1-1.29-1.62s-.88-1-1.32-1.6a3.93,3.93,0,0,1,1.77,1.23,4,4,0,0,1,.57.93A2.72,2.72,0,0,1,290.2,280.43Z" style="fill: rgb(38, 50, 56); transform-origin: 288.895px 278.82px;" id="elz0egxuhqcv8" class="animable"></path><path d="M326,282.66c-.07-.06-.11.21-.06.29,1.42,2,2.67,4.48,1.12,6.49-.05.06,0,.16.09.1C329.43,287.6,327.72,284.28,326,282.66Z" style="fill: rgb(38, 50, 56); transform-origin: 327.083px 286.105px;" id="ela76o9oflts5" class="animable"></path><path d="M322.66,281.87c-3.72,2.13.34,8.82,3.78,6.85S325.77,280.09,322.66,281.87Z" style="fill: rgb(38, 50, 56); transform-origin: 324.462px 285.325px;" id="el4ccf9qjisot" class="animable"></path><path d="M362,288.35c-1.62,0-13.44-4-12.77-6,1.15-3.44,14.37-4.32,16-1.86C366.33,282.15,364.09,288.31,362,288.35Z" style="fill: rgb(38, 50, 56); transform-origin: 357.361px 283.72px;" id="elj0khf130pgb" class="animable"></path><path d="M358.18,300.47c-1.18.23-2.37.32-3.55.48l-1.76.19a3.38,3.38,0,0,0-.79.19l-.83.29c-2.23.81-4.48,1.59-6.75,2.32-.57.18-1.14.35-1.74.51a3.06,3.06,0,0,1-1,.13c-.33,0-.63-.06-.93-.1-1.19-.19-2.37-.4-3.53-.64l-3.49-.76a7.38,7.38,0,0,0-1.71-.29,6.46,6.46,0,0,0-1.74.24,5.1,5.1,0,0,1,1.72-.55,8.48,8.48,0,0,1,1.82,0c1.19.13,2.37.27,3.55.43s2.35.33,3.51.45c.29,0,.58.06.85.07a1.76,1.76,0,0,0,.71-.11c.55-.15,1.11-.33,1.68-.51,2.26-.7,4.52-1.45,6.82-2.08l.87-.23a3.48,3.48,0,0,1,1-.14h1.79Z" style="fill: rgb(38, 50, 56); transform-origin: 344.27px 302.471px;" id="el0vp727gzvi2b" class="animable"></path><path d="M88.62,454.2a0,0,0,0,0,0,0c.48.53.94,1.09,1.37,1.66a3,3,0,0,1,.75,1.75s.06,0,.07,0a3.11,3.11,0,0,0-.41-1.91A5.05,5.05,0,0,0,88.62,454.2Z" style="fill: rgb(38, 50, 56); transform-origin: 89.7241px 455.905px;" id="eljuadaz0hwi" class="animable"></path><path d="M90.68,453.75s-.05,0,0,0a17.54,17.54,0,0,1,1.23,1.66c.33.49.91,1.21.6,1.82,0,.11,0,.13.09,0,.44-.56.09-1.35-.22-1.88A5.22,5.22,0,0,0,90.68,453.75Z" style="fill: rgb(38, 50, 56); transform-origin: 91.7326px 455.535px;" id="elq57fmlpzik" class="animable"></path><path d="M252.67,454.2a0,0,0,0,0,0,0c.48.53.94,1.09,1.37,1.66a3,3,0,0,1,.75,1.75,0,0,0,1,0,.06,0,3.1,3.1,0,0,0-.4-1.91A5.15,5.15,0,0,0,252.67,454.2Z" style="fill: rgb(38, 50, 56); transform-origin: 253.77px 455.905px;" id="elezru9xgqiui" class="animable"></path><path d="M254.73,453.75s0,0,0,0a17.54,17.54,0,0,1,1.23,1.66c.32.49.91,1.21.6,1.82,0,.11,0,.13.08,0,.44-.56.1-1.35-.21-1.88A5.33,5.33,0,0,0,254.73,453.75Z" style="fill: rgb(38, 50, 56); transform-origin: 255.79px 455.535px;" id="el71ab0ffexkv" class="animable"></path><g id="elja7owypqou"><g style="opacity: 0.1; transform-origin: 176.475px 354.305px;" class="animable"><path d="M190.5,289.83a33.13,33.13,0,0,0-5.14,3.67c-1.62,1.34-3.19,2.75-4.72,4.2-3,2.92-6,5.89-8.85,9l-.68-.89c1.52-.77,3-1.5,4.58-2.25l1.76-.87-1.06,1.64c-1.53,2.38-3,4.8-4.51,7.2-.36.6-.73,1.21-1,1.81a4.47,4.47,0,0,0-.4,1.91,39.76,39.76,0,0,0,.1,4.22l-.4-.09c.87-1.37,1.74-2.75,2.64-4.1-.74,1.45-1.51,2.88-2.27,4.32l-.3.57-.1-.66a29,29,0,0,1-.36-4.28,5.13,5.13,0,0,1,.37-2.24c.31-.66.66-1.28,1-1.91,1.37-2.5,2.88-4.9,4.36-7.33l.7.77c-1.52.77-3,1.56-4.55,2.31l-2.76,1.35L171,306c1.45-1.56,2.94-3.07,4.45-4.56s3-2.95,4.66-4.33,3.25-2.74,5-4A28.76,28.76,0,0,1,190.5,289.83Z" id="elep6tp30iwdd" class="animable" style="transform-origin: 179.705px 305px;"></path><path d="M256.89,339.11c.94,2.61,1.78,5.26,2.6,7.92.2.67.42,1.33.61,2a10.85,10.85,0,0,1,.22,2.16c0,1.4,0,2.79-.09,4.18l-.13,2.9-1-2.73-1.31-3.66,1.08-.24c.17,2.31.3,4.62.35,6.94,0,1.16.09,2.32.06,3.48a28.71,28.71,0,0,1-.19,3.47c0-1.15-.16-2.3-.28-3.45l-.35-3.45q-.37-3.45-.7-6.89l-.4-4.26,1.48,4,1.34,3.65-1.11.16c.09-1.37.14-2.75.16-4.11a9.66,9.66,0,0,0-.12-2c-.18-.67-.32-1.34-.48-2C258,344.54,257.39,341.85,256.89,339.11Z" id="eln1nre0o11ld" class="animable" style="transform-origin: 258.605px 352.32px;"></path><path d="M104.14,332l-3.36,5c-1.1,1.67-2.25,3.31-3.33,5-.53.83-1.08,1.68-1.53,2.53a2.55,2.55,0,0,0-.25.6l-.15.71-.28,1.46c-.36,2-.69,3.94-1,5.91l-1-.38L97,347l1.49-2.31L98,347.42c-.8,4.85-1.52,9.73-2.09,14.6,0,.61-.13,1.22-.16,1.82a5,5,0,0,0,.08,1.67l1.45,3.4c.94,2.28,1.91,4.54,2.82,6.84-1.14-2.19-2.22-4.41-3.32-6.62l-1.61-3.33a2.94,2.94,0,0,1-.2-1c0-.33,0-.65,0-1,0-.63,0-1.24.09-1.87.16-2.47.48-4.92.79-7.37s.67-4.89,1-7.33l1,.4-3.81,5.75-1.41,2.13.44-2.51c.35-2,.71-3.94,1.1-5.91.09-.5.2-1,.32-1.48l.2-.75a3.4,3.4,0,0,1,.35-.77c.53-.9,1.1-1.72,1.68-2.54C99.15,338.28,101.62,335.12,104.14,332Z" id="elvtso2pkoosh" class="animable" style="transform-origin: 98.385px 353.875px;"></path><path d="M243.24,390.2c.71,2.86,1.34,5.73,1.82,8.65a17.06,17.06,0,0,1,.27,2.26,13.55,13.55,0,0,1-.42,2.26c-.34,1.43-.7,2.86-1.1,4.28l-.59,2.12-.48-2.15L241.47,402l1.11,0c-1,3.2-2,6.36-3.18,9.49-.31.77-.62,1.55-1,2.32a7.83,7.83,0,0,1-.64,1.15,1.8,1.8,0,0,1-.31.31l-.26.16-.5.35-4,3a49.37,49.37,0,0,1,3.61-3.47l.5-.4a2.71,2.71,0,0,0,.25-.19.73.73,0,0,0,.11-.14,7.9,7.9,0,0,0,.52-1c.31-.75.58-1.53.84-2.31,1.06-3.13,2-6.31,3-9.49l.63-2.13.48,2.17,1.23,5.66-1.08,0c.4-1.4.82-2.81,1.2-4.22.17-.69.39-1.45.47-2.05a17.8,17.8,0,0,0-.14-2.12Z" id="elwmlc2g4ggy" class="animable" style="transform-origin: 239.01px 404.49px;"></path></g></g></g><defs>     <filter id="active" height="200%">         <feMorphology in="SourceAlpha" result="DILATED" operator="dilate" radius="2"></feMorphology>                <feFlood flood-color="#32DFEC" flood-opacity="1" result="PINK"></feFlood>        <feComposite in="PINK" in2="DILATED" operator="in" result="OUTLINE"></feComposite>        <feMerge>            <feMergeNode in="OUTLINE"></feMergeNode>            <feMergeNode in="SourceGraphic"></feMergeNode>        </feMerge>    </filter>    <filter id="hover" height="200%">        <feMorphology in="SourceAlpha" result="DILATED" operator="dilate" radius="2"></feMorphology>                <feFlood flood-color="#ff0000" flood-opacity="0.5" result="PINK"></feFlood>        <feComposite in="PINK" in2="DILATED" operator="in" result="OUTLINE"></feComposite>        <feMerge>            <feMergeNode in="OUTLINE"></feMergeNode>            <feMergeNode in="SourceGraphic"></feMergeNode>        </feMerge>            <feColorMatrix type="matrix" values="0   0   0   0   0                0   1   0   0   0                0   0   0   0   0                0   0   0   1   0 "></feColorMatrix>    </filter></defs></svg>